<svg width="194" height="194" viewBox="0 0 194 194" fill="none" xmlns="http://www.w3.org/2000/svg">
<circle cx="97" cy="97" r="97" fill="#FAF1E7"/>
<path d="M154.547 119.309L97.0596 62.1619L39.5719 119.309L68.3161 147.882L97.06 119.309L125.803 147.882L154.547 119.309Z" fill="white"/>
<path d="M97.0596 119.308L125.804 147.885L131.552 133.734L97.0596 99.4464L97.0596 119.308Z" fill="#FAF1E7" stroke="#1F2333" stroke-width="1.71294" stroke-linejoin="round"/>
<path d="M154.551 119.302L125.804 147.876L131.553 133.734L166.045 99.4464L154.551 119.302Z" fill="#1F2333" stroke="#1F2333" stroke-width="1.71294" stroke-linejoin="round"/>
<path d="M97.0601 119.308L68.316 147.885L62.5674 133.734L97.0601 99.4464L97.0601 119.308Z" fill="#1F2333" stroke="#1F2333" stroke-width="1.71294" stroke-linejoin="round"/>
<path d="M39.5683 119.302L68.3155 147.876L62.5669 133.734L28.0742 99.4464L39.5683 119.302Z" fill="#FAF1E7" stroke="#1F2333" stroke-width="1.71294" stroke-linejoin="round"/>
<path d="M166.045 99.4437L97.0596 30.8677L28.0743 99.4437L62.5674 133.732L97.06 99.4442L131.552 133.732L166.045 99.4437Z" fill="url(#paint0_linear_5043_60906)" stroke="#1F2333" stroke-width="1.71294" stroke-linejoin="round"/>
<g clip-path="url(#clip0_5043_60906)">
<path d="M97 81C116.882 81 133 64.8822 133 45C133 25.1177 116.882 9 97 9C77.1177 9 61 25.1177 61 45C61 64.8822 77.1177 81 97 81Z" fill="#FF0420"/>
<path d="M86.5072 54.5683C84.3637 54.5683 82.6074 54.0638 81.2384 53.0551C79.8874 52.0284 79.2119 50.5694 79.2119 48.6779C79.2119 48.2817 79.257 47.7952 79.347 47.2188C79.5813 45.9219 79.9145 44.3637 80.3468 42.5444C81.5716 37.5908 84.733 35.114 89.8308 35.114C91.2178 35.114 92.4606 35.3482 93.5595 35.8164C94.6584 36.2667 95.5229 36.9513 96.1534 37.87C96.7838 38.7706 97.0992 39.8515 97.0992 41.1123C97.0992 41.4906 97.0541 41.968 96.9639 42.5444C96.6938 44.1476 96.3695 45.7058 95.9912 47.2188C95.3608 49.6867 94.271 51.533 92.7218 52.7579C91.1727 53.9648 89.1013 54.5683 86.5072 54.5683ZM86.8855 50.6774C87.8944 50.6774 88.7499 50.3802 89.4525 49.7857C90.1731 49.1913 90.6864 48.2817 90.9926 47.0568C91.4068 45.3635 91.7222 43.8863 91.9383 42.6255C92.0103 42.2472 92.0463 41.86 92.0463 41.4635C92.0463 39.8244 91.1907 39.0047 89.4795 39.0047C88.4707 39.0047 87.6061 39.302 86.8855 39.8964C86.1831 40.491 85.6787 41.4006 85.3725 42.6255C85.0482 43.8323 84.7239 45.3095 84.3998 47.0568C84.3277 47.4169 84.2917 47.7952 84.2917 48.1915C84.2917 49.8488 85.1564 50.6774 86.8855 50.6774Z" fill="white"/>
<path d="M98.3396 54.2981C98.1414 54.2981 97.9882 54.2351 97.8802 54.1089C97.7901 53.9648 97.7631 53.8028 97.7991 53.6226L101.528 36.0597C101.564 35.8615 101.663 35.6994 101.825 35.5732C101.987 35.4472 102.158 35.3842 102.338 35.3842H109.526C111.525 35.3842 113.128 35.7984 114.335 36.627C115.56 37.4557 116.173 38.6535 116.173 40.2207C116.173 40.671 116.119 41.1394 116.011 41.6257C115.56 43.6973 114.651 45.2284 113.282 46.2191C111.931 47.2099 110.075 47.7052 107.715 47.7052H104.068L102.825 53.6226C102.789 53.8208 102.69 53.9828 102.528 54.1089C102.366 54.2351 102.194 54.2981 102.014 54.2981H98.3396ZM107.905 43.9765C108.661 43.9765 109.319 43.7693 109.877 43.355C110.453 42.9407 110.832 42.3463 111.012 41.5717C111.066 41.2654 111.093 40.9953 111.093 40.7611C111.093 40.2387 110.94 39.8424 110.634 39.5723C110.327 39.284 109.805 39.14 109.066 39.14H105.824L104.797 43.9765H107.905Z" fill="white"/>
</g>
<defs>
<linearGradient id="paint0_linear_5043_60906" x1="166.044" y1="82.2992" x2="28.0743" y2="82.2992" gradientUnits="userSpaceOnUse">
<stop stop-color="#FAF1E7"/>
<stop offset="0.26021" stop-color="#FDCEAA"/>
<stop offset="0.61201" stop-color="#F4837D"/>
<stop offset="0.9999" stop-color="#B9AAFD"/>
</linearGradient>
<clipPath id="clip0_5043_60906">
<rect width="72" height="72" fill="white" transform="translate(61 9)"/>
</clipPath>
</defs>
</svg>
