<svg width="194" height="194" viewBox="0 0 194 194" fill="none" xmlns="http://www.w3.org/2000/svg">
<circle cx="97" cy="97" r="97" fill="#FAF1E7"/>
<path d="M154.547 119.309L97.0596 62.1619L39.5719 119.309L68.3161 147.882L97.06 119.309L125.803 147.882L154.547 119.309Z" fill="white"/>
<path d="M97.0596 119.308L125.804 147.885L131.552 133.734L97.0596 99.4464L97.0596 119.308Z" fill="#FAF1E7" stroke="#1F2333" stroke-width="1.71294" stroke-linejoin="round"/>
<path d="M154.551 119.302L125.804 147.876L131.553 133.734L166.045 99.4464L154.551 119.302Z" fill="#1F2333" stroke="#1F2333" stroke-width="1.71294" stroke-linejoin="round"/>
<path d="M97.0601 119.308L68.316 147.885L62.5674 133.734L97.0601 99.4464L97.0601 119.308Z" fill="#1F2333" stroke="#1F2333" stroke-width="1.71294" stroke-linejoin="round"/>
<path d="M39.5683 119.302L68.3155 147.876L62.5669 133.734L28.0742 99.4464L39.5683 119.302Z" fill="#FAF1E7" stroke="#1F2333" stroke-width="1.71294" stroke-linejoin="round"/>
<path d="M166.045 99.4437L97.0596 30.8677L28.0743 99.4437L62.5674 133.732L97.06 99.4442L131.552 133.732L166.045 99.4437Z" fill="url(#paint0_linear_5043_60909)" stroke="#1F2333" stroke-width="1.71294" stroke-linejoin="round"/>
<g opacity="0.9">
<circle cx="97.0291" cy="45.0291" r="36.0291" fill="white"/>
</g>
<g clip-path="url(#clip0_5043_60909)">
<path d="M104.818 28.6982C101.52 28.6982 98.8431 31.3638 98.8375 34.6622V41.2702C98.2215 41.3094 97.5943 41.3374 96.9391 41.3374C96.2839 41.3374 95.6567 41.3654 95.0407 41.399V34.6622C94.9847 31.3974 92.3247 28.7766 89.0599 28.7766C85.7951 28.7766 83.1295 31.3974 83.0791 34.6622V50.4598C83.1295 53.7246 85.7895 56.3454 89.0599 56.3454C92.3303 56.3454 94.9903 53.7246 95.0407 50.4598V43.8518C95.6567 43.8126 96.2839 43.7846 96.9391 43.7846C97.5943 43.7846 98.2215 43.7566 98.8375 43.723V50.4654C98.8879 53.7302 101.554 56.351 104.818 56.351C108.083 56.351 110.749 53.7302 110.799 50.4654V34.6622C110.788 31.3638 108.117 28.6982 104.818 28.6982V28.6982ZM89.0599 31.1454C91.0031 31.1454 92.5823 32.719 92.5879 34.6622V41.6622C90.8407 41.9142 89.1271 42.4014 87.5031 43.1014C86.7975 43.4094 86.1367 43.807 85.5319 44.2774V34.6622C85.5375 32.719 87.1167 31.1454 89.0599 31.1454ZM92.5879 50.4598C92.5879 52.4086 91.0087 53.9878 89.0599 53.9878C87.1111 53.9878 85.5319 52.4086 85.5319 50.4598V48.875C85.5319 47.475 86.6407 46.1478 88.4999 45.3246C89.8103 44.759 91.1823 44.3558 92.5935 44.1262V50.4598H92.5879ZM104.818 53.9766C102.875 53.9766 101.296 52.403 101.29 50.4598V43.4598C103.038 43.2078 104.751 42.7206 106.375 42.0206C107.081 41.7126 107.742 41.315 108.346 40.8446V50.4598C108.335 52.403 106.762 53.9766 104.818 53.9766ZM105.378 39.7862C104.068 40.3518 102.696 40.755 101.285 40.9846V34.6622C101.285 32.7134 102.864 31.1342 104.813 31.1342C106.762 31.1342 108.341 32.7134 108.341 34.6622V36.247C108.346 37.6414 107.238 38.9686 105.378 39.7862V39.7862Z" fill="url(#paint1_linear_5043_60909)"/>
</g>
<defs>
<linearGradient id="paint0_linear_5043_60909" x1="166.044" y1="82.2992" x2="28.0743" y2="82.2992" gradientUnits="userSpaceOnUse">
<stop stop-color="#FAF1E7"/>
<stop offset="0.26021" stop-color="#FDCEAA"/>
<stop offset="0.61201" stop-color="#F4837D"/>
<stop offset="0.9999" stop-color="#B9AAFD"/>
</linearGradient>
<linearGradient id="paint1_linear_5043_60909" x1="84.8319" y1="54.6751" x2="108.977" y2="30.3826" gradientUnits="userSpaceOnUse">
<stop stop-color="#00AEE9"/>
<stop offset="1" stop-color="#69FABD"/>
</linearGradient>
<clipPath id="clip0_5043_60909">
<rect width="28" height="28" fill="white" transform="translate(82.9336 28.5303)"/>
</clipPath>
</defs>
</svg>
