<svg width="194" height="194" viewBox="0 0 194 194" fill="none" xmlns="http://www.w3.org/2000/svg">
<circle cx="97" cy="97" r="97" fill="#FAF1E7"/>
<path d="M154.547 119.309L97.0596 62.1619L39.5719 119.309L68.3161 147.882L97.06 119.309L125.803 147.882L154.547 119.309Z" fill="white"/>
<path d="M97.0596 119.308L125.804 147.885L131.552 133.734L97.0596 99.4463L97.0596 119.308Z" fill="#FAF1E7" stroke="#1F2333" stroke-width="1.71294" stroke-linejoin="round"/>
<path d="M154.551 119.302L125.804 147.876L131.553 133.734L166.045 99.4463L154.551 119.302Z" fill="#1F2333" stroke="#1F2333" stroke-width="1.71294" stroke-linejoin="round"/>
<path d="M97.0601 119.308L68.316 147.885L62.5674 133.734L97.0601 99.4463L97.0601 119.308Z" fill="#1F2333" stroke="#1F2333" stroke-width="1.71294" stroke-linejoin="round"/>
<path d="M39.5683 119.302L68.3155 147.876L62.5669 133.734L28.0742 99.4463L39.5683 119.302Z" fill="#FAF1E7" stroke="#1F2333" stroke-width="1.71294" stroke-linejoin="round"/>
<path d="M166.045 99.4437L97.0596 30.8677L28.0743 99.4437L62.5674 133.732L97.06 99.4442L131.552 133.732L166.045 99.4437Z" fill="url(#paint0_linear_5043_60905)" stroke="#1F2333" stroke-width="1.71294" stroke-linejoin="round"/>
<g opacity="0.9">
<circle cx="97.0291" cy="47.0291" r="36.0291" fill="white"/>
</g>
<path d="M84.6023 30.6642L97.8027 23.4653L111.003 30.6642L106.15 33.3241L97.8027 28.7842L89.455 33.3241L84.6017 30.6642H84.6023ZM111.003 39.744L106.15 37.0846L97.8027 41.6235L89.455 37.0841L84.6017 39.7435V45.0623L92.9494 49.6017V58.6811L97.8027 61.3405L102.656 58.6811V49.6017L111.004 45.0623V39.744H111.003ZM111.003 54.1421V48.8223L106.15 51.4817V56.8011L111.004 54.1416L111.003 54.1421ZM114.449 56.0221L106.102 60.5611V65.8799L119.303 58.6811V44.2824L114.449 46.9418V56.0212V56.0221ZM109.596 35.2046L114.449 37.864V43.1828L119.303 40.5229V35.2041L114.449 32.5442L109.596 35.2041V35.2046ZM92.9494 62.4866V67.8059L97.8027 70.4653L102.656 67.8059V62.4866L97.8027 65.1465L92.9494 62.4866ZM84.6023 54.1416L89.4556 56.8011V51.4817L84.6023 48.8223V54.1416V54.1416ZM92.95 35.2041L97.8033 37.8635L102.657 35.2041L97.8033 32.5442L92.95 35.2041ZM81.1566 37.8635L86.0099 35.2041L81.1566 32.5442L76.3027 35.2041V40.5224L81.156 43.1818V37.864L81.1566 37.8635ZM81.1566 46.9423L76.3027 44.2829V58.6811L89.5032 65.8799V60.5611L81.156 56.0216V46.9423H81.1566Z" fill="#F1B90C"/>
<defs>
<linearGradient id="paint0_linear_5043_60905" x1="166.044" y1="82.2992" x2="28.0743" y2="82.2992" gradientUnits="userSpaceOnUse">
<stop stop-color="#FAF1E7"/>
<stop offset="0.26021" stop-color="#FDCEAA"/>
<stop offset="0.61201" stop-color="#F4837D"/>
<stop offset="0.9999" stop-color="#B9AAFD"/>
</linearGradient>
</defs>
</svg>
