<svg width="155" height="155" viewBox="0 0 155 155" fill="none" xmlns="http://www.w3.org/2000/svg">
<circle cx="77.0586" cy="77.9286" r="77" fill="url(#paint0_linear_1510_35009)"/>
<path d="M119.168 67.3241L77.1098 24.3763L35.0474 67.3241L56.0766 88.7959L77.1098 67.3241L98.1391 88.7959L119.168 67.3241Z" fill="white"/>
<path d="M38.6634 127.403V127.704H38.9639H55.5912H55.8916V127.403V123.027V122.727H55.5912H44.0775V117.02H54.3514H54.6519V116.719V112.344V112.043H54.3514H44.0775V106.555H55.3724H55.6729V106.254V101.879V101.578H55.3724H38.9639H38.6634V101.879V127.403ZM69.8045 127.049L69.8045 127.049L69.8097 127.052C71.3674 127.831 73.2144 128.214 75.3407 128.214C77.4667 128.214 79.3024 127.831 80.8369 127.051L80.8386 127.05C82.3955 126.247 83.583 125.112 84.3912 123.647C85.2223 122.161 85.6321 120.419 85.6321 118.433V101.879V101.578H85.3316H80.5185H80.218V101.879V118.579C80.218 120.074 79.7879 121.218 78.9569 122.049L78.954 122.052C78.1525 122.876 76.9652 123.31 75.3407 123.31C73.7177 123.31 72.5163 122.877 71.6895 122.051C70.8822 121.22 70.4633 120.075 70.4633 118.579V101.879V101.578H70.1629H65.3497H65.0492V101.879V118.433C65.0492 120.418 65.4465 122.159 66.2524 123.645L66.2524 123.645L66.2554 123.65C67.087 125.112 68.2725 126.246 69.8045 127.049ZM96.0354 127.403V127.704H96.3359H101.149H101.449V127.403V118.077H107.858C108.52 118.077 108.908 118.248 109.119 118.511L109.119 118.511L109.126 118.52C109.386 118.82 109.527 119.219 109.527 119.746V127.403V127.704H109.827H114.641H114.941V127.403V119.053C114.941 117.98 114.659 117.089 114.066 116.414C113.524 115.774 112.785 115.412 111.878 115.312V115.131C112.917 114.67 113.796 113.971 114.514 113.037C115.294 112.024 115.67 110.714 115.67 109.135V108.697C115.67 107.262 115.33 106.001 114.638 104.925C113.949 103.852 112.98 103.026 111.742 102.445C110.503 101.864 109.06 101.578 107.421 101.578H96.3359H96.0354V101.879V127.403ZM109.396 107.415L109.4 107.419C109.964 107.961 110.256 108.692 110.256 109.645V110.01C110.256 110.96 109.954 111.705 109.364 112.273C108.803 112.812 108 113.101 106.91 113.101H101.449V106.555H106.91C108.023 106.555 108.836 106.855 109.396 107.415Z" fill="#1F2333" stroke="#1F2333" stroke-width="0.600874"/>
<defs>
<linearGradient id="paint0_linear_1510_35009" x1="39.9175" y1="13.3459" x2="22.44" y2="131.314" gradientUnits="userSpaceOnUse">
<stop stop-color="#87DCC9"/>
<stop offset="1" stop-color="#FDCEAA"/>
</linearGradient>
</defs>
</svg>
