<svg width="1001" height="1000" viewBox="0 0 1001 1000" fill="none" xmlns="http://www.w3.org/2000/svg">
<rect width="1000" height="1000" transform="translate(0.375)" fill="#87DCC9"/>
<path d="M290.726 609.715L500.158 399.377L709.59 609.715L604.873 714.886L500.157 609.717L395.442 714.884L290.726 609.715Z" fill="white"/>
<path d="M500.158 609.713L395.442 714.896L374.499 662.812L500.158 536.609V609.713Z" stroke="#1F2333" stroke-width="7" stroke-linejoin="round"/>
<path d="M290.712 609.692L395.44 714.864L374.498 662.812L248.839 536.609L290.712 609.692Z" stroke="#1F2333" stroke-width="7" stroke-linejoin="round"/>
<path d="M500.157 609.713L604.873 714.896L625.816 662.812L500.157 536.609V609.713Z" stroke="#1F2333" stroke-width="7" stroke-linejoin="round"/>
<path d="M709.603 609.692L604.875 714.864L625.817 662.812L751.477 536.609L709.603 609.692Z" stroke="#1F2333" stroke-width="7" stroke-linejoin="round"/>
<path d="M248.84 536.599L500.158 284.193L751.477 536.599L625.816 662.804L500.157 536.601L374.499 662.802L248.84 536.599Z" stroke="#1F2333" stroke-width="7" stroke-linejoin="round"/>
</svg>
