<svg width="511" height="439" viewBox="0 0 511 439" fill="none" xmlns="http://www.w3.org/2000/svg">
<path d="M45.7363 328.816L255.156 118.478L464.576 328.816L359.865 433.987L255.155 328.818L150.446 433.986L45.7363 328.816Z" fill="url(#paint0_linear_49_707)" stroke="#1F2333" stroke-width="4" stroke-linejoin="round"/>
<path d="M255.156 328.813L150.446 433.996L129.504 381.913L255.156 255.71L255.156 328.813Z" fill="#1F2333" stroke="#1F2333" stroke-width="4" stroke-linejoin="round"/>
<path d="M45.7224 328.792L150.444 433.964L129.503 381.913L3.85107 255.71L45.7224 328.792Z" fill="#FEE0CA" stroke="#1F2333" stroke-width="4" stroke-linejoin="round"/>
<path d="M255.155 328.813L359.865 433.996L380.806 381.913L255.155 255.71V328.813Z" fill="#FEE0CA" stroke="#1F2333" stroke-width="4" stroke-linejoin="round"/>
<path d="M464.588 328.792L359.867 433.964L380.808 381.913L506.46 255.71L464.588 328.792Z" fill="#1F2333" stroke="#1F2333" stroke-width="4" stroke-linejoin="round"/>
<path d="M3.85254 255.7L255.156 3.29395L506.46 255.7L380.806 381.904L255.155 255.701L129.504 381.903L3.85254 255.7Z" fill="url(#paint1_linear_49_707)" stroke="#1F2333" stroke-width="4" stroke-linejoin="round"/>
<defs>
<linearGradient id="paint0_linear_49_707" x1="431.332" y1="173.905" x2="170.936" y2="449.513" gradientUnits="userSpaceOnUse">
<stop stop-color="#F4837D"/>
<stop offset="1" stop-color="#FDCEAA"/>
</linearGradient>
<linearGradient id="paint1_linear_49_707" x1="466.568" y1="69.8064" x2="154.092" y2="400.536" gradientUnits="userSpaceOnUse">
<stop stop-color="#F4837D"/>
<stop offset="1" stop-color="#FDCEAA"/>
</linearGradient>
</defs>
</svg>
