<svg fill="none" height="502" viewBox="0 0 502 502" width="502" xmlns="http://www.w3.org/2000/svg" xmlns:xlink="http://www.w3.org/1999/xlink"><linearGradient id="a" gradientUnits="userSpaceOnUse" x1="419.791" x2="168.106" y1="58.1346" y2="323.311"><stop offset="0" stop-color="#f4837d"/><stop offset="1" stop-color="#fdceaa"/></linearGradient><clipPath id="b"><path d="m0 0h502v502h-502z"/></clipPath><g clip-path="url(#b)"><g stroke="#333a54" stroke-linejoin="round" stroke-width="5"><path d="m82.4551 266.704 167.8699-169.3759 167.869 169.3759-83.936 84.689-83.934-84.688-83.934 84.687z" fill="#faf1e7"/><path d="m250.325 266.702-83.936 84.699-16.786-41.941 100.722-101.625z" fill="#333a54"/><path d="m82.4432 266.685 83.9448 84.69-16.787-41.915-100.7216-101.625z" fill="#faf1e7"/><path d="m250.323 266.702 83.935 84.699 16.786-41.941-100.721-101.625z" fill="#faf1e7"/><path d="m418.203 266.685-83.944 84.69 16.786-41.915 100.722-101.625z" fill="#333a54"/><path d="m48.8813 207.826 201.4437-203.2508 201.443 203.2508-100.723 101.627-100.722-101.626-100.72 101.625z" fill="url(#a)"/></g><path d="m131.179 503.105h10.562v-42.265h31.702v42.265h10.563v-52.834h-52.827z" fill="#faf1e7"/><path d="m236.839 503.105h52.827v-31.702h-10.563v21.132h-31.702v-31.695h42.265v-10.569h-52.827z" fill="#faf1e7"/><path d="m353.063 450.271h-10.562v52.834h52.834v-10.57h-42.272z" fill="#faf1e7"/><path d="m500.996 450.271h-52.834v52.834h52.834v-10.57h-31.681l31.681-31.68zm-42.113 37.778v-27.209h27.18z" fill="#faf1e7"/><path d="m45.4325 450.204-.0071-.007-.9793.987-44.4461 44.446 7.47369 7.473 37.97321-37.973 38.0381 37.901 7.4592-7.488-45.4469-45.281z" fill="#faf1e7"/></g></svg>