<svg width="198" height="199" viewBox="0 0 198 199" fill="none" xmlns="http://www.w3.org/2000/svg">
<circle cx="99.0954" cy="99.6615" r="98.7265" fill="url(#paint0_linear_3180_39638)"/>
<g opacity="0.7">
<path d="M153.087 87.0599L99.1611 31.9939L45.2302 87.0599L72.1931 114.59L99.1611 87.0599L126.124 114.59L153.087 87.0599Z" fill="white"/>
</g>
<path d="M49.7259 163.934V164.319H50.1111H71.4308H71.816V163.934V158.324V157.938H71.4308H56.6678V150.62H69.8412H70.2264V150.235V144.625V144.24H69.8412H56.6678V137.202H71.1503H71.5355V136.817V131.206V130.821H71.1503H50.1111H49.7259V131.206V163.934ZM89.6552 163.48L89.6552 163.48L89.6619 163.484C91.6592 164.482 94.0275 164.974 96.7537 164.974C99.4797 164.974 101.834 164.483 103.801 163.483L103.803 163.482C105.799 162.451 107.322 160.996 108.358 159.118C109.424 157.212 109.949 154.979 109.949 152.433V131.206V130.821H109.564H103.393H103.008V131.206V152.62C103.008 154.537 102.456 156.004 101.39 157.069L101.39 157.069L101.387 157.073C100.359 158.129 98.8367 158.686 96.7537 158.686C94.6727 158.686 93.1323 158.13 92.0721 157.071C91.0371 156.006 90.4999 154.538 90.4999 152.62V131.206V130.821H90.1147H83.9432H83.558V131.206V152.433C83.558 154.978 84.0673 157.21 85.1007 159.115L85.1006 159.115L85.1045 159.122C86.1708 160.996 87.6908 162.45 89.6552 163.48ZM123.289 163.934V164.319H123.674H129.845H130.231V163.934V151.976H138.448C139.296 151.976 139.794 152.196 140.064 152.533L140.069 152.539L140.074 152.545C140.406 152.928 140.588 153.44 140.588 154.116V163.934V164.319H140.973H147.144H147.53V163.934V153.227C147.53 151.851 147.168 150.709 146.407 149.843C145.712 149.023 144.765 148.559 143.602 148.43V148.199C144.934 147.608 146.062 146.711 146.982 145.514C147.982 144.214 148.465 142.535 148.465 140.51V139.949C148.465 138.11 148.028 136.492 147.141 135.112C146.257 133.737 145.015 132.678 143.427 131.933C141.839 131.187 139.989 130.821 137.887 130.821H123.674H123.289V131.206V163.934ZM140.42 138.305L140.425 138.31C141.148 139.005 141.523 139.942 141.523 141.165V141.633C141.523 142.851 141.135 143.806 140.378 144.534C139.659 145.225 138.629 145.595 137.233 145.595H130.231V137.202H137.233C138.659 137.202 139.702 137.587 140.42 138.305L140.42 138.305Z" fill="#1F2333" stroke="#1F2333" stroke-width="0.770445"/>
<g opacity="0.9">
<circle cx="99.0955" cy="45.4988" r="36.0291" fill="white"/>
</g>
<g clip-path="url(#clip0_3180_39638)">
<path d="M109.515 25.0656C105.156 25.0656 101.619 28.4928 101.611 32.7336V41.2296C100.797 41.28 99.9686 41.316 99.1028 41.316C98.237 41.316 97.4082 41.352 96.5942 41.3952V32.7336C96.5202 28.536 93.0052 25.1664 88.691 25.1664C84.3768 25.1664 80.8544 28.536 80.7878 32.7336V53.0448C80.8544 57.2424 84.3694 60.612 88.691 60.612C93.0126 60.612 96.5276 57.2424 96.5942 53.0448V44.5488C97.4082 44.4984 98.237 44.4624 99.1028 44.4624C99.9686 44.4624 100.797 44.4264 101.611 44.3832V53.052C101.678 57.2496 105.2 60.6192 109.515 60.6192C113.829 60.6192 117.351 57.2496 117.418 53.052V32.7336C117.403 28.4928 113.873 25.0656 109.515 25.0656ZM88.691 28.212C91.2588 28.212 93.3456 30.2352 93.353 32.7336V41.7336C91.0442 42.0576 88.7798 42.684 86.6338 43.584C85.7014 43.98 84.8282 44.4912 84.029 45.096V32.7336C84.0364 30.2352 86.1232 28.212 88.691 28.212ZM93.353 53.0448C93.353 55.5504 91.2662 57.5808 88.691 57.5808C86.1158 57.5808 84.029 55.5504 84.029 53.0448V51.0072C84.029 49.2072 85.4942 47.5008 87.951 46.4424C89.6826 45.7152 91.4956 45.1968 93.3604 44.9016V53.0448H93.353ZM109.515 57.5664C106.947 57.5664 104.86 55.5432 104.853 53.0448V44.0448C107.161 43.7208 109.426 43.0944 111.572 42.1944C112.504 41.7984 113.377 41.2872 114.177 40.6824V53.0448C114.162 55.5432 112.082 57.5664 109.515 57.5664ZM110.255 39.3216C108.523 40.0488 106.71 40.5672 104.845 40.8624V32.7336C104.845 30.228 106.932 28.1976 109.507 28.1976C112.082 28.1976 114.169 30.228 114.169 32.7336V34.7712C114.177 36.564 112.711 38.2704 110.255 39.3216Z" fill="url(#paint1_linear_3180_39638)"/>
</g>
<defs>
<linearGradient id="paint0_linear_3180_39638" x1="98.9583" y1="1.20309" x2="0.944227" y2="110.427" gradientUnits="userSpaceOnUse">
<stop stop-color="#87DCC9"/>
<stop offset="1" stop-color="#FDCEAA"/>
</linearGradient>
<linearGradient id="paint1_linear_3180_39638" x1="83.104" y1="58.4644" x2="114.131" y2="26.381" gradientUnits="userSpaceOnUse">
<stop stop-color="#00AEE9"/>
<stop offset="1" stop-color="#69FABD"/>
</linearGradient>
<clipPath id="clip0_3180_39638">
<rect width="37" height="36" fill="white" transform="translate(80.5955 24.8496)"/>
</clipPath>
</defs>
</svg>
