<svg width="198" height="198" viewBox="0 0 198 198" fill="none" xmlns="http://www.w3.org/2000/svg">
<circle cx="98.7265" cy="98.7265" r="98.7265" fill="url(#paint0_linear_4315_52061)"/>
<g opacity="0.7">
<path d="M152.718 86.1248L98.7922 31.0588L44.8613 86.1248L71.8242 113.655L98.7922 86.1248L125.755 113.655L152.718 86.1248Z" fill="white"/>
</g>
<path d="M49.357 162.999V163.384H49.7422H71.0619H71.4471V162.999V157.389V157.003H71.0619H56.2989V149.685H69.4723H69.8575V149.3V143.69V143.305H69.4723H56.2989V136.267H70.7814H71.1666V135.882V130.271V129.886H70.7814H49.7422H49.357V130.271V162.999ZM89.2863 162.545L89.2863 162.545L89.293 162.549C91.2903 163.547 93.6586 164.039 96.3848 164.039C99.1108 164.039 101.465 163.548 103.432 162.548L103.434 162.547C105.431 161.516 106.953 160.061 107.989 158.183C109.055 156.277 109.581 154.044 109.581 151.498V130.271V129.886H109.195H103.024H102.639V130.271V151.685C102.639 153.602 102.087 155.069 101.022 156.134L101.022 156.134L101.018 156.138C99.9902 157.194 98.4678 157.751 96.3848 157.751C94.3038 157.751 92.7634 157.195 91.7032 156.136C90.6682 155.071 90.131 153.603 90.131 151.685V130.271V129.886H89.7458H83.5743H83.1891V130.271V151.498C83.1891 154.043 83.6984 156.275 84.7318 158.18L84.7317 158.18L84.7356 158.187C85.8019 160.061 87.3219 161.515 89.2863 162.545ZM122.92 162.999V163.384H123.305H129.477H129.862V162.999V151.041H138.079C138.927 151.041 139.425 151.261 139.695 151.598L139.7 151.604L139.705 151.61C140.037 151.993 140.219 152.505 140.219 153.181V162.999V163.384H140.604H146.775H147.161V162.999V152.292C147.161 150.916 146.799 149.774 146.038 148.908C145.343 148.088 144.396 147.624 143.233 147.495V147.264C144.565 146.673 145.693 145.776 146.613 144.579C147.613 143.279 148.096 141.6 148.096 139.575V139.014C148.096 137.175 147.659 135.557 146.772 134.177C145.888 132.802 144.646 131.743 143.059 130.998C141.47 130.252 139.62 129.886 137.518 129.886H123.305H122.92V130.271V162.999ZM140.051 137.37L140.056 137.375C140.779 138.07 141.154 139.007 141.154 140.23V140.698C141.154 141.916 140.766 142.871 140.009 143.599C139.291 144.29 138.26 144.66 136.864 144.66H129.862V136.267H136.864C138.29 136.267 139.333 136.652 140.051 137.37L140.051 137.37Z" fill="#1F2333" stroke="#1F2333" stroke-width="0.770445"/>
<g opacity="0.9">
<circle cx="98.7266" cy="44.5637" r="36.0291" fill="white"/>
</g>
<path d="M86.2995 28.1988L99.5 21L112.7 28.1988L107.848 30.8587L99.5 26.3188L91.1523 30.8587L86.299 28.1988H86.2995ZM112.7 37.2786L107.848 34.6192L99.5 39.1582L91.1523 34.6187L86.299 37.2782V42.597L94.6467 47.1364V56.2157L99.5 58.8751L104.353 56.2157V47.1364L112.701 42.597V37.2786H112.7ZM112.7 51.6768V46.357L107.848 49.0164V54.3357L112.701 51.6763L112.7 51.6768ZM116.147 53.5568L107.8 58.0957V63.4146L121 56.2157V41.8171L116.147 44.4765V53.5558V53.5568ZM111.293 32.7392L116.147 35.3986V40.7175L121 38.0576V32.7387L116.147 30.0788L111.293 32.7387V32.7392ZM94.6467 60.0213V65.3406L99.5 68L104.353 65.3406V60.0213L99.5 62.6812L94.6467 60.0213ZM86.2995 51.6763L91.1528 54.3357V49.0164L86.2995 46.357V51.6763ZM94.6472 32.7387L99.5005 35.3982L104.354 32.7387L99.5005 30.0788L94.6472 32.7387ZM82.8538 35.3982L87.7071 32.7387L82.8538 30.0788L78 32.7387V38.0571L82.8533 40.7165V35.3986L82.8538 35.3982ZM82.8538 44.477L78 41.8176V56.2157L91.2005 63.4146V58.0957L82.8533 53.5563V44.477H82.8538Z" fill="#F1B90C"/>
<defs>
<linearGradient id="paint0_linear_4315_52061" x1="98.5894" y1="0.268035" x2="0.57533" y2="109.492" gradientUnits="userSpaceOnUse">
<stop stop-color="#87DCC9"/>
<stop offset="1" stop-color="#FDCEAA"/>
</linearGradient>
</defs>
</svg>
