<svg width="1001" height="1001" viewBox="0 0 1001 1001" fill="none" xmlns="http://www.w3.org/2000/svg">
<rect width="1000" height="1000" transform="translate(0.628174 0.895508)" fill="#1F2333"/>
<g clip-path="url(#clip0_1417_29497)">
<path d="M332.083 516.599L499.952 347.224L667.822 516.599L583.886 601.288L499.951 516.6L416.018 601.287L332.083 516.599Z" fill="#FAF1E7"/>
<path d="M499.952 516.597L416.017 601.296L399.231 559.356L499.952 457.73V516.597Z" fill="#333A54"/>
<path d="M332.072 516.58L416.016 601.27L399.23 559.356L298.508 457.73L332.072 516.58Z" fill="#FAF1E7"/>
<path d="M499.951 516.597L583.886 601.296L600.673 559.356L499.951 457.73L499.951 516.597Z" fill="#FAF1E7"/>
<path d="M667.832 516.58L583.888 601.27L600.674 559.356L701.396 457.73L667.832 516.58Z" fill="#333A54"/>
<path d="M298.509 457.722L499.952 254.471L701.396 457.722L600.673 559.348L499.951 457.723L399.231 559.347L298.509 457.722Z" fill="url(#paint0_linear_1417_29497)"/>
<path d="M380.806 753H391.369V710.735H423.071V753H433.633V700.166H380.806V753Z" fill="#FAF1E7"/>
<path d="M486.468 753H539.295V721.298H528.732V742.43H497.03V710.735H539.295V700.166H486.468V753Z" fill="#FAF1E7"/>
<path d="M602.691 700.166H592.129V753H644.963V742.43H602.691V700.166Z" fill="#FAF1E7"/>
<path d="M750.624 700.166H697.79V753H750.624V742.43H718.944L750.624 710.75V700.166ZM708.511 737.944V710.735H735.691L708.511 737.944Z" fill="#FAF1E7"/>
<path d="M295.061 700.1L295.054 700.093L294.074 701.08L249.628 745.526L257.102 752.999L295.075 715.026L333.113 752.927L340.572 745.439L295.126 700.158L295.061 700.1Z" fill="#FAF1E7"/>
</g>
<defs>
<linearGradient id="paint0_linear_1417_29497" x1="669.419" y1="308.03" x2="417.734" y2="573.207" gradientUnits="userSpaceOnUse">
<stop stop-color="#F4837D"/>
<stop offset="1" stop-color="#FDCEAA"/>
</linearGradient>
<clipPath id="clip0_1417_29497">
<rect width="502" height="502" fill="white" transform="translate(249.628 249.896)"/>
</clipPath>
</defs>
</svg>
