<svg width="1001" height="1001" viewBox="0 0 1001 1001" fill="none" xmlns="http://www.w3.org/2000/svg">
<rect width="1000" height="1000" transform="translate(0.372559 0.895508)" fill="#1F2333"/>
<g clip-path="url(#clip0_390_29857)">
<path d="M331.827 516.599L499.697 347.224L667.566 516.599L583.63 601.288L499.696 516.6L415.762 601.287L331.827 516.599Z" stroke="#1F2333" stroke-width="5" stroke-linejoin="round"/>
<path d="M499.697 516.597L415.762 601.296L398.975 559.356L499.697 457.73V516.597Z" stroke="#76A0FC" stroke-width="5" stroke-linejoin="round"/>
<path d="M331.816 516.58L415.76 601.27L398.974 559.356L298.252 457.73L331.816 516.58Z" stroke="#FAF1E7" stroke-width="5" stroke-linejoin="round"/>
<path d="M499.696 516.597L583.631 601.296L600.417 559.356L499.696 457.73L499.696 516.597Z" stroke="#FAF1E7" stroke-width="5" stroke-linejoin="round"/>
<path d="M667.577 516.58L583.632 601.27L600.419 559.356L701.14 457.73L667.577 516.58Z" stroke="#76A0FC" stroke-width="5" stroke-linejoin="round"/>
<path d="M298.254 457.722L499.697 254.471L701.14 457.722L600.417 559.348L499.696 457.723L398.975 559.347L298.254 457.722Z" stroke="#FDCEAA" stroke-width="5" stroke-linejoin="round"/>
<path d="M380.551 753H391.113V710.735H422.815V753H433.378V700.166H380.551V753Z" fill="#FAF1E7"/>
<path d="M486.212 753H539.039V721.298H528.476V742.43H496.774V710.735H539.039V700.166H486.212V753Z" fill="#FAF1E7"/>
<path d="M602.436 700.166H591.873V753H644.707V742.43H602.436V700.166Z" fill="#FAF1E7"/>
<path d="M750.368 700.166H697.534V753H750.368V742.43H718.688L750.368 710.75V700.166ZM708.255 737.944V710.735H735.436L708.255 737.944Z" fill="#FAF1E7"/>
<path d="M294.805 700.1L294.798 700.093L293.819 701.08L249.373 745.526L256.846 752.999L294.819 715.026L332.858 752.927L340.317 745.439L294.87 700.158L294.805 700.1Z" fill="#FAF1E7"/>
</g>
<defs>
<clipPath id="clip0_390_29857">
<rect width="502" height="502" fill="white" transform="translate(249.373 249.896)"/>
</clipPath>
</defs>
</svg>
