<svg width="1000" height="1001" viewBox="0 0 1000 1001" fill="none" xmlns="http://www.w3.org/2000/svg">
<rect width="1000" height="1000" transform="translate(0 0.895508)" fill="#FAF1E7"/>
<g clip-path="url(#clip0_1417_29629)">
<path d="M207.348 539.662L171.219 576.829L163.993 558.425L207.348 513.831V539.662Z" fill="#1F2333" stroke="#1F2333" stroke-width="2.12012" stroke-linejoin="round"/>
<path d="M135.084 539.655L171.218 576.818L163.992 558.425L120.637 513.831L135.084 539.655Z" stroke="#1F2333" stroke-width="2.12012" stroke-linejoin="round"/>
<path d="M207.347 539.662L243.476 576.829L250.702 558.425L207.347 513.831L207.347 539.662Z" stroke="#1F2333" stroke-width="2.12012" stroke-linejoin="round"/>
<path d="M279.61 539.655L243.477 576.818L250.703 558.425L294.058 513.831L279.61 539.655Z" fill="#1F2333" stroke="#1F2333" stroke-width="2.12012" stroke-linejoin="round"/>
<path d="M120.638 513.827L207.348 424.639L294.058 513.827L250.702 558.422L207.347 513.828L163.993 558.422L120.638 513.827Z" stroke="#1F2333" stroke-width="2.12012" stroke-linejoin="round"/>
<path d="M489.312 528.896H500.487V484.182H534.026V528.896H545.201V473H489.312V528.896Z" fill="#1F2333"/>
<path d="M601.096 528.896H656.984V495.357H645.81V517.714H612.27V484.182H656.984V473H601.096V528.896Z" fill="#1F2333"/>
<path d="M724.056 473H712.882V528.896H768.778V517.714H724.056V473Z" fill="#1F2333"/>
<path d="M880.562 473H824.666V528.896H880.562V517.714H847.045L880.562 484.197V473ZM836.008 512.968V484.182H864.763L836.008 512.968Z" fill="#1F2333"/>
<path d="M398.596 472.931L398.589 472.924L397.553 473.967L350.531 520.989L358.438 528.896L398.612 488.722L438.854 528.82L446.746 520.898L398.665 472.992L398.596 472.931Z" fill="#1F2333"/>
</g>
<defs>
<clipPath id="clip0_1417_29629">
<rect width="761.124" height="154.769" fill="white" transform="translate(119.438 423.511)"/>
</clipPath>
</defs>
</svg>
