<svg width="116" height="115" viewBox="0 0 116 115" fill="none" xmlns="http://www.w3.org/2000/svg">
<g clip-path="url(#clip0_6664_290609)">
<circle cx="58.3914" cy="57.5001" r="57.5" fill="url(#paint0_linear_6664_290609)"/>
<path d="M89.7553 49.5816L58.3479 17.5103L26.9376 49.5816L42.6413 65.6158L58.3479 49.5816L74.0516 65.6158L89.7553 49.5816Z" fill="white"/>
<path fill-rule="evenodd" clip-rule="evenodd" d="M24.364 92.1875C25.0332 93.3729 25.9278 94.2893 27.0476 94.9265L27.0539 94.93C28.1882 95.5452 29.4444 95.8504 30.8152 95.8504C31.8243 95.8504 32.6546 95.7299 33.2832 95.4663C33.8827 95.2149 34.3593 94.8931 34.6824 94.4859C34.8786 94.2525 35.0442 94.0214 35.1762 93.7929V95.4665H39.2317V84.94H30.4052V88.7213H34.9562C34.9413 89.6721 34.6629 90.4365 34.139 91.0397C33.6283 91.6278 32.787 91.9594 31.5281 91.9594C30.29 91.9594 29.3711 91.5846 28.7213 90.8706C28.0604 90.1264 27.7156 89.1385 27.7156 87.8726V83.1565C27.7156 81.8692 28.0619 80.8947 28.7172 80.1903C29.3684 79.4903 30.2718 79.1245 31.4733 79.1245C32.2887 79.1245 32.9355 79.2808 33.4336 79.5701L33.4374 79.5723L33.4412 79.5743C33.9482 79.8523 34.3155 80.2303 34.5556 80.7105L34.5577 80.7147L34.5599 80.7188C34.8226 81.2113 34.9568 81.7654 34.9568 82.3887V82.9633H39.2317V82.4984C39.2317 80.2837 38.557 78.4935 37.1773 77.1711C35.8125 75.827 33.8934 75.1787 31.4733 75.1787C29.0283 75.1787 27.0497 75.867 25.5797 77.2785C24.1012 78.6797 23.3858 80.6763 23.3858 83.2113V87.8178C23.3858 89.507 23.7049 90.9665 24.3607 92.1816L24.364 92.1875Z" fill="#1F2333"/>
<path fill-rule="evenodd" clip-rule="evenodd" d="M44.6151 77.2753C43.0984 78.6759 42.363 80.6736 42.363 83.2113V87.8178C42.363 90.3562 43.0988 92.362 44.6142 93.7803L44.616 93.782C46.1224 95.1725 48.1355 95.8504 50.615 95.8504C53.0945 95.8504 55.1076 95.1725 56.614 93.782L56.6158 93.7803C58.1312 92.362 58.8669 90.3562 58.8669 87.8178V83.2113C58.8669 80.6737 58.1316 78.676 56.615 77.2754C55.1088 75.8662 53.0953 75.1787 50.615 75.1787C48.1347 75.1787 46.1213 75.8662 44.6151 77.2753ZM53.5112 90.8356C52.8445 91.5348 51.896 91.9045 50.615 91.9045C49.3552 91.9045 48.4042 91.5364 47.7174 90.834C47.0447 90.1277 46.6927 89.1719 46.6927 87.9274V83.1016C46.6927 81.8572 47.0447 80.9014 47.7173 80.1951C48.4042 79.4927 49.3552 79.1245 50.615 79.1245C51.896 79.1245 52.8445 79.4943 53.5112 80.1935C54.1848 80.9 54.5372 81.8563 54.5372 83.1016V87.9274C54.5372 89.1728 54.1848 90.1291 53.5112 90.8356Z" fill="#1F2333"/>
<path d="M66.4835 75.5626H62.1538V95.4665H75.2577V91.4658H66.4835V75.5626Z" fill="#1F2333"/>
<path fill-rule="evenodd" clip-rule="evenodd" d="M79.8117 91.5755H77.2891V95.4665H85.5411C88.1749 95.4665 90.2337 94.8029 91.6565 93.4191C93.1 92.0146 93.793 89.9615 93.793 87.3242V83.7049C93.793 81.069 93.1007 79.0242 91.6564 77.6373C90.2339 76.2354 88.175 75.5626 85.5411 75.5626H77.2891V79.4536H79.8117V91.5755ZM88.5374 80.5945L88.5403 80.5977C89.138 81.26 89.4633 82.2409 89.4633 83.5952V87.4339C89.4633 88.7679 89.139 89.7518 88.5374 90.4346C87.9535 91.0975 87.0012 91.4658 85.5959 91.4658H84.1414V79.5633H85.5959C87.0012 79.5633 87.9535 79.9316 88.5374 80.5945Z" fill="#1F2333"/>
</g>
<defs>
<linearGradient id="paint0_linear_6664_290609" x1="30.1934" y1="105.073" x2="105.668" y2="29.5981" gradientUnits="userSpaceOnUse">
<stop stop-color="#FDCEAA"/>
<stop offset="0.996921" stop-color="#DCA660"/>
</linearGradient>
<clipPath id="clip0_6664_290609">
<rect width="115" height="115" fill="white" transform="translate(0.890831 6.10352e-05)"/>
</clipPath>
</defs>
</svg>
