<svg width="195" height="195" viewBox="0 0 195 195" fill="none" xmlns="http://www.w3.org/2000/svg">
<g clip-path="url(#clip0_6536_275443)">
<circle cx="97.5" cy="97.5" r="97.5" fill="url(#paint0_linear_6536_275443)"/>
<path d="M150.683 84.073L97.4267 29.6912L44.1658 84.073L70.7937 111.261L97.4267 84.073L124.055 111.261L150.683 84.073Z" fill="white"/>
<path fill-rule="evenodd" clip-rule="evenodd" d="M39.8021 156.318C40.9368 158.328 42.4538 159.882 44.3527 160.962L44.3634 160.968C46.2867 162.011 48.4167 162.529 50.7412 162.529C52.4522 162.529 53.8602 162.324 54.9261 161.877C55.9425 161.451 56.7507 160.906 57.2985 160.215C57.6313 159.819 57.9122 159.428 58.1358 159.04V161.878H65.0126V144.029H50.0459V150.44H57.7628C57.7376 152.053 57.2654 153.349 56.3771 154.372C55.5111 155.369 54.0846 155.931 51.95 155.931C49.8507 155.931 48.2924 155.295 47.1906 154.085C46.0701 152.823 45.4852 151.148 45.4852 149.001V141.004C45.4852 138.822 46.0726 137.169 47.1837 135.975C48.2878 134.788 49.8198 134.168 51.857 134.168C53.2398 134.168 54.3364 134.433 55.1811 134.923L55.1875 134.927L55.194 134.93C56.0536 135.402 56.6765 136.043 57.0836 136.857L57.0871 136.864L57.0909 136.871C57.5362 137.706 57.7639 138.646 57.7639 139.702V140.677H65.0126V139.888C65.0126 136.133 63.8685 133.098 61.529 130.855C59.2149 128.576 55.9607 127.477 51.857 127.477C47.7112 127.477 44.3562 128.644 41.8636 131.037C39.3566 133.413 38.1436 136.799 38.1436 141.097V148.908C38.1436 151.773 38.6845 154.247 39.7965 156.308L39.8021 156.318Z" fill="#1F2333"/>
<path fill-rule="evenodd" clip-rule="evenodd" d="M74.141 131.032C71.5692 133.407 70.3223 136.794 70.3223 141.097V148.908C70.3223 153.213 71.5698 156.614 74.1395 159.019L74.1425 159.021C76.6969 161.379 80.1104 162.529 84.3147 162.529C88.519 162.529 91.9326 161.379 94.4869 159.021L94.4899 159.019C97.0596 156.614 98.3072 153.213 98.3072 148.908V141.097C98.3072 136.794 97.0603 133.407 94.4886 131.032C91.9347 128.643 88.5205 127.477 84.3147 127.477C80.1091 127.477 76.695 128.643 74.141 131.032ZM89.2256 154.025C88.0951 155.211 86.4868 155.838 84.3147 155.838C82.1785 155.838 80.566 155.214 79.4013 154.023C78.2607 152.825 77.664 151.204 77.664 149.094V140.911C77.664 138.801 78.2607 137.181 79.4013 135.983C80.566 134.792 82.1785 134.168 84.3147 134.168C86.4868 134.168 88.0951 134.794 89.2256 135.98C90.3679 137.178 90.9655 138.8 90.9655 140.911V149.094C90.9655 151.206 90.3679 152.827 89.2256 154.025Z" fill="#1F2333"/>
<path d="M111.222 128.128H103.881V161.878H126.1V155.094H111.222V128.128Z" fill="#1F2333"/>
<path fill-rule="evenodd" clip-rule="evenodd" d="M133.822 155.28H129.545V161.878H143.537C148.003 161.878 151.494 160.753 153.907 158.406C156.355 156.025 157.53 152.543 157.53 148.071V141.934C157.53 137.465 156.356 133.997 153.907 131.646C151.495 129.269 148.003 128.128 143.537 128.128H129.545V134.725H133.822V155.28ZM148.618 136.66L148.623 136.665C149.636 137.789 150.188 139.452 150.188 141.748V148.257C150.188 150.519 149.638 152.188 148.618 153.345C147.628 154.47 146.013 155.094 143.63 155.094H141.164V134.911H143.63C146.013 134.911 147.628 135.536 148.618 136.66Z" fill="#1F2333"/>
</g>
<defs>
<linearGradient id="paint0_linear_6536_275443" x1="49.686" y1="178.167" x2="177.665" y2="50.1879" gradientUnits="userSpaceOnUse">
<stop stop-color="#FDCEAA"/>
<stop offset="0.996921" stop-color="#DCA660"/>
</linearGradient>
<clipPath id="clip0_6536_275443">
<rect width="195" height="195" fill="white"/>
</clipPath>
</defs>
</svg>
