<svg
  width="196"
  height="195"
  viewBox="0 0 196 195"
  fill="none"
  xmlns="http://www.w3.org/2000/svg"
>
<circle
    cx="97.9059"
    cy="97.4469"
    r="97.1349"
    fill="url(#paint0_linear_3180_39636)"
  />
<g opacity="0.7">
<path
      d="M151.027 84.0695L97.9707 29.8913L44.9092 84.0695L71.4374 111.156L97.9707 84.0695L124.499 111.156L151.027 84.0695Z"
      fill="white"
    />
</g>
<circle cx="97.9058" cy="43.9739" r="36.0291" fill="white" />
<g clip-path="url(#clip0_3180_39636)">
<path
      d="M104.303 41.5566L108.501 34.5989L119.816 51.8129L119.821 55.1165L119.784 32.3836C119.758 31.8277 119.456 31.3193 118.974 31.0194L98.6025 19.5741C98.1263 19.3452 97.5217 19.348 97.0462 19.5813C96.9818 19.6129 96.9217 19.6469 96.864 19.6843L96.7929 19.728L77.0193 30.9204L76.9427 30.9548C76.8438 30.9987 76.7443 31.0554 76.6504 31.1207C76.2754 31.3832 76.0264 31.7717 75.9459 32.207C75.9339 32.273 75.9248 32.3403 75.9209 32.4084L75.9519 50.9334L86.4913 34.9775C87.818 32.8619 90.7091 32.1799 93.3932 32.2173L96.5428 32.2984L77.9834 61.3714L80.1711 62.6016L98.9529 32.328L107.255 32.2984L88.5214 63.3362L96.3279 67.7224L97.2607 68.246C97.6553 68.4026 98.1203 68.4105 98.5181 68.27L119.176 56.5767L115.226 58.8122L104.303 41.5566ZM105.905 64.0889L98.0201 52.0008L102.833 44.0227L113.189 59.9655L105.905 64.0889Z"
      fill="#2D374B"
    />
<path
      d="M98.0195 52.0011L105.904 64.0889L113.188 59.9658L102.833 44.023L98.0195 52.0011Z"
      fill="#28A0F0"
    />
<path
      d="M119.821 55.1168L119.816 51.8132L108.501 34.5992L104.303 41.5569L115.226 58.8125L119.176 56.5769C119.563 56.2698 119.798 55.8187 119.822 55.3322L119.821 55.1168Z"
      fill="#28A0F0"
    />
<path
      d="M72.406 58.2322L77.9833 61.3713L96.5427 32.2984L93.393 32.2173C90.7094 32.1802 87.8182 32.8618 86.4912 34.9775L75.9517 50.9333L72.406 56.2547V58.2322Z"
      fill="white"
    />
<path
      d="M107.254 32.2984L98.9526 32.3279L80.1709 62.6016L86.7358 66.2935L88.5208 63.3361L107.254 32.2984Z"
      fill="white"
    />
<path
      d="M123.319 32.2565C123.25 30.5607 122.31 29.0085 120.838 28.1046L100.2 16.5115C98.7431 15.7952 96.9236 15.7942 95.4643 16.5112C95.292 16.5961 75.3943 27.8682 75.3943 27.8682C75.1189 27.997 74.8537 28.1506 74.6043 28.3251C73.2899 29.2455 72.4887 30.6754 72.406 32.2462V56.2551L75.9517 50.9337L75.9208 32.4083C75.925 32.3406 75.9338 32.2737 75.9458 32.208C76.026 31.7721 76.2753 31.3835 76.6503 31.1207C76.7442 31.0554 96.9813 19.6128 97.0457 19.5812C97.5216 19.348 98.1258 19.3452 98.6021 19.574L118.973 31.0193C119.455 31.3193 119.757 31.8277 119.784 32.3836V55.3316C119.759 55.818 119.562 56.2691 119.175 56.5763L115.226 58.8118L113.188 59.9655L105.904 64.0885L98.5177 68.2696C98.1199 68.4101 97.6545 68.4022 97.2602 68.2456L88.521 63.3358L86.7356 66.2931L94.5896 70.7099C94.8492 70.8542 95.0806 70.982 95.2705 71.0865C95.5646 71.2476 95.7651 71.3551 95.8358 71.3888C96.3939 71.6537 97.1969 71.8076 97.9208 71.8076C98.5841 71.8076 99.2313 71.6887 99.8437 71.4544L121.298 59.3182C122.53 58.3861 123.254 56.9807 123.319 55.4583V32.2565Z"
      fill="#96BEDC"
    />
</g>
<path
    d="M49.8376 159.445V127.245H70.5376V132.765H55.9096V140.447H69.2496V145.967H55.9096V153.925H70.8136V159.445H49.8376Z"
    fill="#1F2333"
  />
<path
    d="M95.7283 160.089C93.091 160.089 90.8217 159.614 88.9203 158.663C87.0497 157.682 85.6083 156.302 84.5963 154.523C83.615 152.714 83.1243 150.582 83.1243 148.129V127.245H89.1963V148.313C89.1963 150.276 89.7483 151.824 90.8523 152.959C91.987 154.094 93.6123 154.661 95.7283 154.661C97.8443 154.661 99.4543 154.094 100.558 152.959C101.693 151.824 102.26 150.276 102.26 148.313V127.245H108.332V148.129C108.332 150.582 107.826 152.714 106.814 154.523C105.833 156.302 104.392 157.682 102.49 158.663C100.62 159.614 98.3657 160.089 95.7283 160.089Z"
    fill="#1F2333"
  />
<path
    d="M122.215 159.445V127.245H136.199C138.223 127.245 139.986 127.598 141.489 128.303C142.991 129.008 144.157 130.005 144.985 131.293C145.813 132.581 146.227 134.099 146.227 135.847V136.399C146.227 138.331 145.767 139.895 144.847 141.091C143.927 142.287 142.792 143.161 141.443 143.713V144.541C142.669 144.602 143.62 145.032 144.295 145.829C144.969 146.596 145.307 147.623 145.307 148.911V159.445H139.235V149.785C139.235 149.049 139.035 148.451 138.637 147.991C138.269 147.531 137.64 147.301 136.751 147.301H128.287V159.445H122.215ZM128.287 141.781H135.555C136.996 141.781 138.115 141.398 138.913 140.631C139.741 139.834 140.155 138.791 140.155 137.503V137.043C140.155 135.755 139.756 134.728 138.959 133.961C138.161 133.164 137.027 132.765 135.555 132.765H128.287V141.781Z"
    fill="#1F2333"
  />
<path
    fill-rule="evenodd"
    clip-rule="evenodd"
    d="M49.0796 160.203V126.487H71.2956V133.523H56.6676V139.689H70.0076V146.725H56.6676V153.167H71.5716V160.203H49.0796ZM55.9096 153.925V145.967H69.2496V140.447H55.9096V132.765H70.5376V127.245H49.8376V159.445H70.8136V153.925H55.9096ZM88.5747 159.338L88.5682 159.334C86.5734 158.288 85.0236 156.807 83.9375 154.898L83.9337 154.891L83.93 154.884C82.8779 152.944 82.3663 150.684 82.3663 148.129V126.487H89.9543V148.313C89.9543 150.126 90.4593 151.466 91.392 152.427C92.3435 153.376 93.7495 153.903 95.7283 153.903C97.7111 153.903 99.0968 153.374 100.015 152.43L100.022 152.423C100.984 151.461 101.502 150.122 101.502 148.313V126.487H109.09V148.129C109.09 150.687 108.562 152.95 107.477 154.891C106.419 156.807 104.865 158.29 102.838 159.336L102.834 159.339C100.833 160.355 98.4551 160.847 95.7283 160.847C93.001 160.847 90.6102 160.355 88.5813 159.341L88.5747 159.338ZM106.814 154.523C107.826 152.714 108.332 150.582 108.332 148.129V127.245H102.26V148.313C102.26 150.276 101.693 151.824 100.558 152.959C99.4543 154.094 97.8443 154.661 95.7283 154.661C93.6123 154.661 91.987 154.094 90.8523 152.959C89.7483 151.824 89.1963 150.276 89.1963 148.313V127.245H83.1243V148.129C83.1243 150.582 83.615 152.714 84.5963 154.523C85.6083 156.302 87.0497 157.682 88.9203 158.663C90.8217 159.614 93.091 160.089 95.7283 160.089C98.3657 160.089 100.62 159.614 102.49 158.663C104.392 157.682 105.833 156.302 106.814 154.523ZM121.457 160.203V126.487H136.199C138.31 126.487 140.188 126.855 141.811 127.617C143.431 128.377 144.711 129.465 145.622 130.883C146.539 132.31 146.985 133.975 146.985 135.847V136.399C146.985 138.451 146.495 140.191 145.447 141.553C144.669 142.566 143.742 143.372 142.671 143.964C143.542 144.196 144.285 144.647 144.868 145.334C145.691 146.271 146.065 147.491 146.065 148.911V160.203H138.477V149.785C138.477 149.191 138.319 148.782 138.064 148.487L138.054 148.476L138.045 148.464C137.882 148.261 137.53 148.059 136.751 148.059H129.045V160.203H121.457ZM128.287 147.301H136.751C137.64 147.301 138.269 147.531 138.637 147.991C139.035 148.451 139.235 149.049 139.235 149.785V159.445H145.307V148.911C145.307 147.623 144.969 146.596 144.295 145.829C143.62 145.032 142.669 144.602 141.443 144.541V143.713C142.792 143.161 143.927 142.287 144.847 141.091C145.767 139.895 146.227 138.331 146.227 136.399V135.847C146.227 134.099 145.813 132.581 144.985 131.293C144.157 130.005 142.991 129.008 141.489 128.303C139.986 127.598 138.223 127.245 136.199 127.245H122.215V159.445H128.287V147.301ZM138.428 134.502L138.423 134.497C137.807 133.881 136.889 133.523 135.555 133.523H129.045V141.023H135.555C136.861 141.023 137.77 140.678 138.387 140.085C139.048 139.448 139.397 138.612 139.397 137.503V137.043C139.397 135.924 139.057 135.107 138.433 134.507L138.428 134.502ZM138.913 140.631C138.115 141.398 136.996 141.781 135.555 141.781H128.287V132.765H135.555C137.027 132.765 138.161 133.164 138.959 133.961C139.756 134.728 140.155 135.755 140.155 137.043V137.503C140.155 138.791 139.741 139.834 138.913 140.631Z"
    fill="#1F2333"
  />
<defs>
<linearGradient
      id="paint0_linear_3180_39636"
      x1="97.771"
      y1="0.575726"
      x2="1.33705"
      y2="108.039"
      gradientUnits="userSpaceOnUse"
    >
<stop stop-color="#87DCC9" />
<stop offset="1" stop-color="#FDCEAA" />
</linearGradient>
<clipPath id="clip0_3180_39636">
<rect
        width="51"
        height="56"
        fill="white"
        transform="translate(72.406 15.9739)"
      />
</clipPath>
</defs>
</svg>
