<svg width="250" height="29" viewBox="0 0 250 29" fill="none" xmlns="http://www.w3.org/2000/svg">
<path d="M65.4587 28.1028H70.7295V7.01263H86.5489V28.1028H91.8197V1.73828H65.4587V28.1028Z" fill="#1F2333"/>
<path d="M118.184 28.1028H144.545V12.2834H139.275V22.8285H123.455V7.01263H144.545V1.73828H118.184V28.1028Z" fill="#1F2333"/>
<path d="M176.181 1.73828H170.91V28.1028H197.274V22.8285H176.181V1.73828Z" fill="#1F2333"/>
<path d="M250 1.73828H223.635V28.1028H250V22.8285H234.191L250 7.0198V1.73828ZM228.985 20.5901V7.01263H242.548L228.985 20.5901Z" fill="#1F2333"/>
<path d="M22.6711 1.70574L22.6675 1.70215L22.1789 2.19437L0 24.3732L3.72941 28.1026L22.6783 9.15378L41.6595 28.0667L45.3817 24.3301L22.7034 1.73449L22.6711 1.70574Z" fill="#1F2333"/>
</svg>
