<svg width="155" height="155" viewBox="0 0 155 155" fill="none" xmlns="http://www.w3.org/2000/svg">
<g clip-path="url(#clip0_1510_35070)">
<path d="M77.4365 153.603C119.63 153.603 153.835 119.398 153.835 77.2043C153.835 35.0106 119.63 0.805908 77.4365 0.805908C35.2428 0.805908 1.03809 35.0106 1.03809 77.2043C1.03809 119.398 35.2428 153.603 77.4365 153.603Z" fill="#FAF1E7"/>
<path d="M20.4927 84.5518L25.8408 96.9012L51.6094 122.09L48.3035 111.222L20.4927 84.5518Z" fill="white"/>
<path d="M77.4395 83.3677L78.218 96.2957L105.091 121.457L106.827 110.536L77.4395 83.3677Z" fill="white"/>
<path d="M20.2354 83.9613L77.1867 31.8238L134.577 82.6541L106.827 110.536L77.4392 83.3677L48.3033 111.223L20.2354 83.9613Z" fill="url(#paint0_linear_1510_35070)"/>
<path d="M77.1867 31.8238L20.2354 83.9613" stroke="#27363B" stroke-width="3" stroke-linecap="round" stroke-linejoin="round"/>
<path d="M134.577 82.6541L77.187 31.8238" stroke="#27363B" stroke-width="3" stroke-linecap="round" stroke-linejoin="round"/>
<path d="M48.3037 111.222L77.4396 83.3064" stroke="#27363B" stroke-width="3" stroke-linecap="round" stroke-linejoin="round"/>
<path d="M77.4395 83.3064L106.827 110.536" stroke="#27363B" stroke-width="3" stroke-linecap="round" stroke-linejoin="round"/>
<path d="M106.827 110.536L134.577 82.6541" stroke="#27363B" stroke-width="3" stroke-linecap="round" stroke-linejoin="round"/>
<path d="M20.2354 83.9613L48.3033 111.222" stroke="#27363B" stroke-width="3" stroke-linecap="round" stroke-linejoin="round"/>
<path d="M78.2178 96.2957L51.6094 122.09" stroke="#27363B" stroke-width="3" stroke-linecap="round" stroke-linejoin="round"/>
<path d="M105.091 121.457L78.2178 96.2957" stroke="#27363B" stroke-width="3" stroke-linecap="round" stroke-linejoin="round"/>
<path d="M130.541 95.6897L105.091 121.457" stroke="#27363B" stroke-width="3" stroke-linecap="round" stroke-linejoin="round"/>
<path d="M51.6094 122.09L25.8408 96.9012" stroke="#27363B" stroke-width="3" stroke-linecap="round" stroke-linejoin="round"/>
<path d="M20.2354 83.9613L25.8406 96.9012" stroke="#27363B" stroke-width="3" stroke-linecap="round" stroke-linejoin="round"/>
<path d="M130.541 95.6902L134.577 82.6541" stroke="#27363B" stroke-width="3" stroke-linecap="round" stroke-linejoin="round"/>
<path d="M77.4395 83.3064L78.218 96.2957" stroke="#27363B" stroke-width="3" stroke-linecap="round" stroke-linejoin="round"/>
<path d="M48.3037 111.222L51.6096 122.09" stroke="#27363B" stroke-width="3" stroke-linecap="round" stroke-linejoin="round"/>
<path d="M106.827 110.536L105.091 121.457" stroke="#27363B" stroke-width="3" stroke-linecap="round" stroke-linejoin="round"/>
<path d="M48.3037 111.222L51.6096 122.09L78.2182 96.2957L77.4396 83.3064L48.3037 111.222Z" fill="#27363B" stroke="#27363B" stroke-miterlimit="10"/>
<path d="M106.827 110.536L105.091 121.457L130.541 95.6902L133.926 83.3064L106.827 110.536Z" fill="#27363B" stroke="#27363B" stroke-miterlimit="10"/>
</g>
<defs>
<linearGradient id="paint0_linear_1510_35070" x1="20.2362" y1="71.5229" x2="134.577" y2="71.5229" gradientUnits="userSpaceOnUse">
<stop offset="0.099" stop-color="#27363B"/>
<stop offset="0.3091" stop-color="#EB4960"/>
<stop offset="0.5063" stop-color="#F4837D"/>
<stop offset="0.6881" stop-color="#FCD5B4"/>
<stop offset="0.9603" stop-color="#99B998"/>
</linearGradient>
<clipPath id="clip0_1510_35070">
<rect width="154" height="154" fill="white" transform="translate(0.436523 0.204346)"/>
</clipPath>
</defs>
</svg>
