<svg width="155" height="155" viewBox="0 0 155 155" fill="none" xmlns="http://www.w3.org/2000/svg">
<circle cx="77.0801" cy="77.9286" r="77" fill="url(#paint0_linear_1510_35092)"/>
<path d="M119.19 67.3241L77.1313 24.3763L35.0688 67.3241L56.0981 88.7959L77.1313 67.3241L98.1606 88.7959L119.19 67.3241Z" fill="white"/>
<path d="M38.7577 127.403V127.704H39.0581H55.6854H55.9859V127.403V123.027V122.727H55.6854H44.1717V117.02H54.4457H54.7461V116.719V112.344V112.043H54.4457H44.1717V106.555H55.4667H55.7671V106.254V101.879V101.578H55.4667H39.0581H38.7577V101.879V127.403ZM69.8987 127.049L69.8987 127.049L69.904 127.052C71.4617 127.831 73.3087 128.214 75.4349 128.214C77.5609 128.214 79.3967 127.831 80.9311 127.051L80.9328 127.05C82.4898 126.247 83.6772 125.112 84.4855 123.647C85.3165 122.161 85.7263 120.419 85.7263 118.433V101.879V101.578H85.4259H80.6127H80.3123V101.879V118.579C80.3123 120.074 79.8821 121.218 79.0511 122.049L79.0482 122.052C78.2468 122.876 77.0594 123.31 75.4349 123.31C73.8119 123.31 72.6105 122.877 71.7837 122.051C70.9765 121.22 70.5575 120.075 70.5575 118.579V101.879V101.578H70.2571H65.4439H65.1435V101.879V118.433C65.1435 120.418 65.5407 122.159 66.3467 123.645L66.3466 123.645L66.3496 123.65C67.1812 125.112 68.3667 126.246 69.8987 127.049ZM96.1297 127.403V127.704H96.4301H101.243H101.544V127.403V118.077H107.953C108.614 118.077 109.003 118.248 109.213 118.511L109.213 118.511L109.221 118.52C109.48 118.82 109.621 119.219 109.621 119.746V127.403V127.704H109.922H114.735H115.035V127.403V119.053C115.035 117.98 114.753 117.089 114.16 116.414C113.618 115.774 112.879 115.412 111.972 115.312V115.131C113.011 114.67 113.89 113.971 114.608 113.037C115.388 112.024 115.764 110.714 115.764 109.135V108.697C115.764 107.262 115.424 106.001 114.732 104.925C114.043 103.852 113.074 103.026 111.836 102.445C110.597 101.864 109.154 101.578 107.515 101.578H96.4301H96.1297V101.879V127.403ZM109.49 107.415L109.495 107.419C110.058 107.961 110.35 108.692 110.35 109.645V110.01C110.35 110.96 110.048 111.705 109.458 112.273C108.897 112.812 108.094 113.101 107.005 113.101H101.544V106.555H107.005C108.117 106.555 108.93 106.855 109.49 107.415Z" fill="#1F2333" stroke="#1F2333" stroke-width="0.600874"/>
<defs>
<linearGradient id="paint0_linear_1510_35092" x1="141.857" y1="27.9826" x2="17.7503" y2="126.933" gradientUnits="userSpaceOnUse">
<stop stop-color="#F4837D"/>
<stop offset="1" stop-color="#FDCEAA"/>
</linearGradient>
</defs>
</svg>
