<svg width="511" height="439" viewBox="0 0 511 439" fill="none" xmlns="http://www.w3.org/2000/svg">
<path d="M255.159 329.713L150.448 434.896L129.507 382.812L255.159 256.609L255.159 329.713Z" stroke="url(#paint0_linear_881_23098)" stroke-width="7" stroke-linejoin="round"/>
<path d="M45.7248 329.692L150.447 434.864L129.505 382.812L3.85339 256.609L45.7248 329.692Z" stroke="url(#paint1_linear_881_23098)" stroke-width="7" stroke-linejoin="round"/>
<path d="M255.157 329.713L359.867 434.896L380.809 382.812L255.157 256.609V329.713Z" stroke="url(#paint2_linear_881_23098)" stroke-width="7" stroke-linejoin="round"/>
<path d="M464.591 329.692L359.869 434.864L380.81 382.812L506.462 256.609L464.591 329.692Z" stroke="url(#paint3_linear_881_23098)" stroke-width="7" stroke-linejoin="round"/>
<path d="M3.85498 256.599L255.159 4.19336L506.462 256.599L380.809 382.804L255.157 256.601L129.507 382.802L3.85498 256.599Z" stroke="url(#paint4_linear_881_23098)" stroke-width="7" stroke-linejoin="round"/>
<defs>
<linearGradient id="paint0_linear_881_23098" x1="123.843" y1="408.174" x2="230.59" y2="443.348" gradientUnits="userSpaceOnUse">
<stop stop-color="#76A0FC"/>
<stop offset="0.203125" stop-color="#B9AAFD"/>
<stop offset="0.796875" stop-color="#FDCEAA"/>
</linearGradient>
<linearGradient id="paint1_linear_881_23098" x1="150.447" y1="304.569" x2="-5.52639" y2="370.389" gradientUnits="userSpaceOnUse">
<stop stop-color="#76A0FC"/>
<stop offset="0.203125" stop-color="#B9AAFD"/>
<stop offset="0.796875" stop-color="#FDCEAA"/>
</linearGradient>
<linearGradient id="paint2_linear_881_23098" x1="386.473" y1="408.174" x2="279.725" y2="443.348" gradientUnits="userSpaceOnUse">
<stop stop-color="#76A0FC"/>
<stop offset="0.203125" stop-color="#B9AAFD"/>
<stop offset="0.796875" stop-color="#FDCEAA"/>
</linearGradient>
<linearGradient id="paint3_linear_881_23098" x1="359.869" y1="304.569" x2="515.842" y2="370.389" gradientUnits="userSpaceOnUse">
<stop stop-color="#76A0FC"/>
<stop offset="0.203125" stop-color="#B9AAFD"/>
<stop offset="0.796875" stop-color="#FDCEAA"/>
</linearGradient>
<linearGradient id="paint4_linear_881_23098" x1="506.462" y1="106.06" x2="76.1431" y2="399.191" gradientUnits="userSpaceOnUse">
<stop stop-color="#76A0FC"/>
<stop offset="0.203125" stop-color="#B9AAFD"/>
<stop offset="0.796875" stop-color="#FDCEAA"/>
</linearGradient>
</defs>
</svg>
