<svg fill="none" height="502" viewBox="0 0 502 502" width="502" xmlns="http://www.w3.org/2000/svg" xmlns:xlink="http://www.w3.org/1999/xlink"><clipPath id="a"><path d="m0 0h502v502h-502z"/></clipPath><g clip-path="url(#a)"><g stroke-linejoin="round" stroke-width="5"><path d="m250.324 266.701-83.935 84.699-16.786-41.941 100.721-101.625z" stroke="#76a0fc"/><path d="m82.4447 266.684 83.9443 84.69-16.786-41.915-100.7221-101.625z" stroke="#b9aafd"/><path d="m250.324 266.701 83.936 84.699 16.786-41.941-100.722-101.625z" stroke="#b9aafd"/><path d="m418.204 266.684-83.945 84.69 16.787-41.915 100.722-101.625z" stroke="#76a0fc"/><path d="m48.8809 207.827 201.4431-203.25132 201.444 203.25132-100.723 101.626-100.722-101.625-100.72 101.624z" stroke="#1f2333"/></g><path d="m131.179 503.103h10.562v-42.264h31.702v42.264h10.563v-52.834h-52.827z" fill="#1f2333"/><path d="m236.84 503.103h52.827v-31.702h-10.563v21.132h-31.702v-31.694h42.265v-10.57h-52.827z" fill="#1f2333"/><path d="m353.063 450.269h-10.562v52.834h52.834v-10.57h-42.272z" fill="#1f2333"/><path d="m500.996 450.269h-52.834v52.834h52.834v-10.57h-31.68l31.68-31.68zm-42.113 37.779v-27.209h27.18z" fill="#1f2333"/><path d="m45.4325 450.205-.0071-.007-.9793.986-44.4461 44.446 7.47369 7.474 37.97321-37.973 38.0381 37.901 7.4592-7.488-45.4469-45.281z" fill="#1f2333"/></g></svg>