<svg fill="none" height="502" viewBox="0 0 502 502" width="502" xmlns="http://www.w3.org/2000/svg" xmlns:xlink="http://www.w3.org/1999/xlink"><clipPath id="a"><path d="m0 0h502v502h-502z"/></clipPath><g clip-path="url(#a)"><g stroke-linejoin="round" stroke-width="5"><path d="m250.324 266.702-83.935 84.699-16.786-41.941 100.721-101.625z" stroke="#76a0fc"/><path d="m82.4447 266.685 83.9443 84.69-16.786-41.915-100.7221-101.625z" stroke="#faf1e7"/><path d="m250.324 266.702 83.936 84.699 16.786-41.941-100.722-101.625z" stroke="#faf1e7"/><path d="m418.204 266.685-83.945 84.69 16.787-41.915 100.722-101.625z" stroke="#76a0fc"/><path d="m48.8809 207.826 201.4431-203.2508 201.444 203.2508-100.723 101.627-100.722-101.626-100.72 101.625z" stroke="#fdceaa"/></g><path d="m131.179 503.105h10.562v-42.265h31.702v42.265h10.563v-52.834h-52.827z" fill="#faf1e7"/><path d="m236.84 503.105h52.827v-31.702h-10.563v21.132h-31.702v-31.695h42.265v-10.569h-52.827z" fill="#faf1e7"/><path d="m353.063 450.271h-10.562v52.834h52.834v-10.57h-42.272z" fill="#faf1e7"/><path d="m500.996 450.271h-52.834v52.834h52.834v-10.57h-31.68l31.68-31.68zm-42.113 37.778v-27.209h27.18z" fill="#faf1e7"/><path d="m45.4325 450.204-.0071-.007-.9793.987-44.4461 44.446 7.47369 7.473 37.97321-37.973 38.0381 37.901 7.4592-7.488-45.4469-45.281z" fill="#faf1e7"/></g></svg>