<svg width="1000" height="1000" viewBox="0 0 1000 1000" fill="none" xmlns="http://www.w3.org/2000/svg">
<rect width="1000" height="1000" fill="#FAF1E7"/>
<g clip-path="url(#clip0_1417_31113)">
<path d="M499.324 515.702L415.389 600.401L398.603 558.46L499.324 456.835V515.702Z" stroke="#76A0FC" stroke-width="5" stroke-linejoin="round"/>
<path d="M331.444 515.685L415.388 600.375L398.601 558.46L297.88 456.835L331.444 515.685Z" stroke="#B9AAFD" stroke-width="5" stroke-linejoin="round"/>
<path d="M499.323 515.702L583.258 600.401L600.045 558.46L499.323 456.835L499.323 515.702Z" stroke="#B9AAFD" stroke-width="5" stroke-linejoin="round"/>
<path d="M667.204 515.685L583.26 600.375L600.046 558.46L700.768 456.835L667.204 515.685Z" stroke="#76A0FC" stroke-width="5" stroke-linejoin="round"/>
<path d="M297.881 456.826L499.324 253.575L700.768 456.826L600.045 558.453L499.323 456.827L398.603 558.452L297.881 456.826Z" stroke="#1F2333" stroke-width="5" stroke-linejoin="round"/>
<path d="M380.178 752.105H390.741V709.84H422.443V752.105H433.005V699.271H380.178V752.105Z" fill="#1F2333"/>
<path d="M485.839 752.105H538.666V720.403H528.104V741.535H496.402V709.84H538.666V699.271H485.839V752.105Z" fill="#1F2333"/>
<path d="M602.063 699.271H591.501V752.105H644.335V741.535H602.063V699.271Z" fill="#1F2333"/>
<path d="M749.996 699.271H697.162V752.105H749.996V741.535H718.316L749.996 709.855V699.271ZM707.883 737.049V709.84H735.063L707.883 737.049Z" fill="#1F2333"/>
<path d="M294.432 699.204L294.425 699.197L293.446 700.184L249 744.63L256.474 752.103L294.447 714.13L332.485 752.031L339.944 744.543L294.497 699.262L294.432 699.204Z" fill="#1F2333"/>
</g>
<defs>
<clipPath id="clip0_1417_31113">
<rect width="502" height="502" fill="white" transform="translate(249 249)"/>
</clipPath>
</defs>
</svg>
