<svg width="195" height="194" viewBox="0 0 195 194" fill="none" xmlns="http://www.w3.org/2000/svg">
<g clip-path="url(#clip0_6707_287904)">
<circle cx="97.1356" cy="97.1376" r="97.1534" fill="url(#paint0_linear_6707_287904)"/>
<path d="M150.132 83.7584L97.0653 29.5698L43.9937 83.7584L70.527 110.85L97.0653 83.7584L123.599 110.85L150.132 83.7584Z" fill="white"/>
<path d="M94.9272 159.798C92.2894 159.798 90.0196 159.323 88.1179 158.372C86.2469 157.39 84.8053 156.01 83.7931 154.231C82.8115 152.421 82.3208 150.29 82.3208 147.836V126.948H88.3939V148.02C88.3939 149.983 88.946 151.532 90.0503 152.667C91.1851 153.802 92.8108 154.369 94.9272 154.369C97.0436 154.369 98.6539 153.802 99.7581 152.667C100.893 151.532 101.46 149.983 101.46 148.02V126.948H107.534V147.836C107.534 150.29 107.027 152.421 106.015 154.231C105.034 156.01 103.592 157.39 101.69 158.372C99.8195 159.323 97.565 159.798 94.9272 159.798Z" fill="#1F2333"/>
<path d="M121.418 159.154V126.948H135.405C137.43 126.948 139.193 127.301 140.696 128.006C142.199 128.712 143.365 129.708 144.193 130.997C145.021 132.285 145.435 133.803 145.435 135.551V136.104C145.435 138.036 144.975 139.6 144.055 140.796C143.135 141.993 142 142.867 140.65 143.419V144.247C141.877 144.308 142.828 144.738 143.503 145.535C144.177 146.302 144.515 147.33 144.515 148.618V159.154H138.442V149.492C138.442 148.756 138.242 148.158 137.844 147.698C137.476 147.238 136.847 147.008 135.957 147.008H127.492V159.154H121.418ZM127.492 141.487H134.761C136.203 141.487 137.322 141.103 138.12 140.336C138.948 139.539 139.362 138.496 139.362 137.208V136.748C139.362 135.459 138.963 134.432 138.166 133.665C137.368 132.868 136.233 132.469 134.761 132.469H127.492V141.487Z" fill="#1F2333"/>
<path fill-rule="evenodd" clip-rule="evenodd" d="M48.2693 159.912V126.19H70.4896V133.227H55.8588V139.394H69.2013V146.432H55.8588V152.875H70.7656V159.912H48.2693ZM87.7719 159.047L87.7654 159.043C85.7702 157.997 84.2202 156.515 83.1338 154.606L83.13 154.599L83.1263 154.593C82.0741 152.652 81.5623 150.392 81.5623 147.836V126.19H89.1518V148.02C89.1518 149.833 89.6569 151.173 90.5898 152.134C91.5415 153.084 92.9477 153.611 94.9269 153.611C96.9101 153.611 98.2961 153.082 99.2144 152.138L99.2217 152.131C100.184 151.168 100.702 149.83 100.702 148.02V126.19H108.291V147.836C108.291 150.394 107.763 152.657 106.678 154.599C105.62 156.516 104.065 157.999 102.038 159.046L102.034 159.048C100.032 160.065 97.6542 160.556 94.9269 160.556C92.1991 160.556 89.8078 160.065 87.7785 159.05L87.7719 159.047ZM106.015 154.231C107.027 152.421 107.534 150.29 107.534 147.836V126.948H101.46V148.02C101.46 149.983 100.893 151.532 99.7581 152.667C98.6539 153.802 97.0436 154.369 94.9272 154.369C92.8108 154.369 91.1851 153.802 90.0503 152.667C88.946 151.532 88.3939 149.983 88.3939 148.02V126.948H82.3208V147.836C82.3208 150.29 82.8115 152.421 83.7931 154.231C84.8053 156.01 86.2469 157.39 88.1179 158.372C90.0196 159.323 92.2894 159.798 94.9272 159.798C97.565 159.798 99.8195 159.323 101.69 158.372C103.592 157.39 105.034 156.01 106.015 154.231ZM120.66 159.912V126.19H135.405C137.517 126.19 139.395 126.558 141.018 127.32C142.639 128.081 143.919 129.168 144.83 130.587C145.748 132.014 146.193 133.679 146.193 135.552V136.104C146.193 138.156 145.703 139.897 144.655 141.259C143.876 142.272 142.95 143.078 141.878 143.67C142.749 143.903 143.493 144.353 144.076 145.04C144.899 145.978 145.273 147.198 145.273 148.618V159.912H137.683V149.492C137.683 148.899 137.526 148.489 137.27 148.194L137.261 148.183L137.251 148.171C137.088 147.968 136.736 147.766 135.957 147.766H128.25V159.912H120.66ZM127.492 147.008H135.957C136.847 147.008 137.476 147.238 137.844 147.698C138.242 148.158 138.442 148.756 138.442 149.492V159.154H144.515V148.618C144.515 147.33 144.177 146.302 143.503 145.535C142.828 144.738 141.877 144.308 140.65 144.247V143.419C142 142.867 143.135 141.993 144.055 140.796C144.975 139.6 145.435 138.036 145.435 136.104V135.551C145.435 133.803 145.021 132.285 144.193 130.997C143.365 129.708 142.199 128.712 140.696 128.006C139.193 127.301 137.43 126.948 135.405 126.948H121.418V159.154H127.492V147.008ZM137.635 134.207L137.629 134.201C137.014 133.586 136.096 133.227 134.761 133.227H128.25V140.728H134.761C136.068 140.728 136.976 140.384 137.594 139.79C138.255 139.153 138.603 138.317 138.603 137.208V136.748C138.603 135.629 138.264 134.812 137.64 134.212L137.635 134.207ZM138.12 140.336C137.322 141.103 136.203 141.487 134.761 141.487H127.492V132.469H134.761C136.233 132.469 137.368 132.868 138.166 133.665C138.963 134.432 139.362 135.459 139.362 136.748V137.208C139.362 138.496 138.948 139.539 138.12 140.336Z" fill="#1F2333"/>
</g>
<g opacity="0.9">
<circle cx="97.5" cy="43.3577" r="36.0291" fill="white"/>
</g>
<path d="M107.984 42.4281C108.942 40.9065 110.472 40.9065 111.43 42.4281L117.364 52.0347C118.322 53.5564 117.54 54.7939 115.635 54.7939H103.668C101.785 54.7939 101.004 53.5564 101.94 52.0347L107.984 42.4281ZM96.5009 23.9352C97.4587 22.4135 98.967 22.4135 99.9249 23.9352L101.246 26.1365L104.362 31.1883C105.121 32.6288 105.121 34.3229 104.362 35.7633L93.8916 52.4811C92.9338 53.8404 91.3595 54.7026 89.5979 54.7939H80.9114C79.0068 54.7939 78.2251 53.5766 79.1829 52.0347L96.5009 23.9352Z" fill="#E84142"/>
<defs>
<linearGradient id="paint0_linear_6707_287904" x1="31.4882" y1="156.014" x2="140.009" y2="59.4955" gradientUnits="userSpaceOnUse">
<stop offset="0.0729167" stop-color="#AAC4FD"/>
<stop offset="1" stop-color="#76A0FC"/>
</linearGradient>
<clipPath id="clip0_6707_287904">
<rect width="195" height="195" fill="white"/>
</clipPath>
</defs>
</svg>
