<svg width="198" height="199" viewBox="0 0 198 199" fill="none" xmlns="http://www.w3.org/2000/svg">
<circle cx="98.7265" cy="99.6615" r="98.7265" fill="url(#paint0_linear_5506_113520)"/>
<path d="M49.0666 160.445V128.245H69.7666V133.765H55.1386V141.447H68.4786V146.967H55.1386V154.925H70.0426V160.445H49.0666Z" fill="#1F2333"/>
<path d="M94.9573 161.089C92.32 161.089 90.0507 160.614 88.1493 159.663C86.2787 158.682 84.8373 157.302 83.8253 155.523C82.844 153.714 82.3533 151.582 82.3533 149.129V128.245H88.4253V149.313C88.4253 151.276 88.9773 152.824 90.0813 153.959C91.216 155.094 92.8413 155.661 94.9573 155.661C97.0733 155.661 98.6833 155.094 99.7873 153.959C100.922 152.824 101.489 151.276 101.489 149.313V128.245H107.561V149.129C107.561 151.582 107.055 153.714 106.043 155.523C105.062 157.302 103.621 158.682 101.719 159.663C99.8487 160.614 97.5947 161.089 94.9573 161.089Z" fill="#1F2333"/>
<path d="M121.444 160.445V128.245H135.428C137.452 128.245 139.215 128.598 140.718 129.303C142.22 130.008 143.386 131.005 144.214 132.293C145.042 133.581 145.456 135.099 145.456 136.847V137.399C145.456 139.331 144.996 140.895 144.076 142.091C143.156 143.287 142.021 144.161 140.672 144.713V145.541C141.898 145.602 142.849 146.032 143.524 146.829C144.198 147.596 144.536 148.623 144.536 149.911V160.445H138.464V150.785C138.464 150.049 138.264 149.451 137.866 148.991C137.498 148.531 136.869 148.301 135.98 148.301H127.516V160.445H121.444ZM127.516 142.781H134.784C136.225 142.781 137.344 142.398 138.142 141.631C138.97 140.834 139.384 139.791 139.384 138.503V138.043C139.384 136.755 138.985 135.728 138.188 134.961C137.39 134.164 136.256 133.765 134.784 133.765H127.516V142.781Z" fill="#1F2333"/>
<path fill-rule="evenodd" clip-rule="evenodd" d="M48.3086 161.203V127.487H70.5246V134.523H55.8966V140.689H69.2366V147.725H55.8966V154.167H70.8006V161.203H48.3086ZM55.1386 154.925V146.967H68.4786V141.447H55.1386V133.765H69.7666V128.245H49.0666V160.445H70.0426V154.925H55.1386ZM87.8037 160.338L87.7972 160.334C85.8024 159.288 84.2526 157.807 83.1665 155.898L83.1627 155.891L83.159 155.884C82.1069 153.944 81.5953 151.684 81.5953 149.129V127.487H89.1833V149.313C89.1833 151.126 89.6883 152.466 90.621 153.427C91.5725 154.376 92.9785 154.903 94.9573 154.903C96.9401 154.903 98.3258 154.374 99.244 153.43L99.2513 153.423C100.213 152.461 100.731 151.122 100.731 149.313V127.487H108.319V149.129C108.319 151.687 107.791 153.95 106.706 155.891C105.648 157.807 104.094 159.29 102.067 160.336L102.063 160.339C100.062 161.355 97.6841 161.847 94.9573 161.847C92.23 161.847 89.8392 161.355 87.8103 160.341L87.8037 160.338ZM106.043 155.523C107.055 153.714 107.561 151.582 107.561 149.129V128.245H101.489V149.313C101.489 151.276 100.922 152.824 99.7873 153.959C98.6833 155.094 97.0733 155.661 94.9573 155.661C92.8413 155.661 91.216 155.094 90.0813 153.959C88.9773 152.824 88.4253 151.276 88.4253 149.313V128.245H82.3533V149.129C82.3533 151.582 82.844 153.714 83.8253 155.523C84.8373 157.302 86.2787 158.682 88.1493 159.663C90.0507 160.614 92.32 161.089 94.9573 161.089C97.5947 161.089 99.8487 160.614 101.719 159.663C103.621 158.682 105.062 157.302 106.043 155.523ZM120.686 161.203V127.487H135.428C137.539 127.487 139.417 127.855 141.04 128.617C142.66 129.377 143.94 130.465 144.851 131.883C145.769 133.31 146.214 134.975 146.214 136.847V137.399C146.214 139.451 145.724 141.191 144.676 142.553C143.898 143.566 142.971 144.372 141.9 144.964C142.771 145.196 143.514 145.647 144.097 146.334C144.92 147.271 145.294 148.491 145.294 149.911V161.203H137.706V150.785C137.706 150.191 137.548 149.782 137.293 149.487L137.283 149.476L137.274 149.464C137.111 149.261 136.759 149.059 135.98 149.059H128.274V161.203H120.686ZM127.516 148.301H135.98C136.869 148.301 137.498 148.531 137.866 148.991C138.264 149.451 138.464 150.049 138.464 150.785V160.445H144.536V149.911C144.536 148.623 144.198 147.596 143.524 146.829C142.849 146.032 141.898 145.602 140.672 145.541V144.713C142.021 144.161 143.156 143.287 144.076 142.091C144.996 140.895 145.456 139.331 145.456 137.399V136.847C145.456 135.099 145.042 133.581 144.214 132.293C143.386 131.005 142.22 130.008 140.718 129.303C139.215 128.598 137.452 128.245 135.428 128.245H121.444V160.445H127.516V148.301ZM137.657 135.502L137.652 135.497C137.036 134.881 136.118 134.523 134.784 134.523H128.274V142.023H134.784C136.09 142.023 136.999 141.678 137.616 141.085C138.277 140.448 138.626 139.612 138.626 138.503V138.043C138.626 136.924 138.286 136.107 137.662 135.507L137.657 135.502ZM138.142 141.631C137.344 142.398 136.225 142.781 134.784 142.781H127.516V133.765H134.784C136.256 133.765 137.39 134.164 138.188 134.961C138.985 135.728 139.384 136.755 139.384 138.043V138.503C139.384 139.791 138.97 140.834 138.142 141.631Z" fill="#1F2333"/>
<g opacity="0.7">
<path d="M151.848 84.6925L98.7912 30.5143L45.7297 84.6925L72.258 111.779L98.7912 84.6925L125.319 111.779L151.848 84.6925Z" fill="white"/>
</g>
<circle cx="99.0291" cy="45.0291" r="36.0291" fill="white"/>
<path d="M104.2 51.5867C111.814 51.5867 117.987 45.4143 117.987 37.8C117.987 30.1857 111.814 24.0133 104.2 24.0133C96.5857 24.0133 90.4132 30.1857 90.4132 37.8C90.4132 45.4143 96.5857 51.5867 104.2 51.5867ZM104.2 56.6C93.8173 56.6 85.3999 48.1826 85.3999 37.8C85.3999 27.4174 93.8173 19 104.2 19C114.583 19 123 27.4174 123 37.8C123 48.1826 114.583 56.6 104.2 56.6Z" fill="#35D07F"/>
<path d="M94.8 60.9867C102.414 60.9867 108.587 54.8143 108.587 47.2C108.587 39.5858 102.414 33.4134 94.8 33.4134C87.1857 33.4134 81.0133 39.5858 81.0133 47.2C81.0133 54.8143 87.1857 60.9867 94.8 60.9867ZM94.8 66C84.4174 66 76 57.5826 76 47.2C76 36.8174 84.4174 28.4 94.8 28.4C105.183 28.4 113.6 36.8174 113.6 47.2C113.6 57.5826 105.183 66 94.8 66Z" fill="#FBCC5C"/>
<defs>
<linearGradient id="paint0_linear_5506_113520" x1="98.5894" y1="1.20309" x2="0.57533" y2="110.427" gradientUnits="userSpaceOnUse">
<stop stop-color="#87DCC9"/>
<stop offset="1" stop-color="#FDCEAA"/>
</linearGradient>
</defs>
</svg>
