<svg width="195" height="195" viewBox="0 0 195 195" fill="none" xmlns="http://www.w3.org/2000/svg">
<g clip-path="url(#clip0_6707_287856)">
<circle cx="97.1356" cy="97.1377" r="97.1534" fill="url(#paint0_linear_6707_287856)"/>
<path d="M150.132 83.7575L97.0653 29.569L43.9937 83.7575L70.527 110.849L97.0653 83.7575L123.599 110.849L150.132 83.7575Z" fill="white"/>
<path d="M94.9272 159.799C92.2894 159.799 90.0196 159.324 88.1179 158.373C86.2469 157.391 84.8053 156.011 83.7931 154.232C82.8115 152.422 82.3208 150.291 82.3208 147.837V126.949H88.3939V148.021C88.3939 149.984 88.946 151.533 90.0503 152.668C91.1851 153.803 92.8108 154.37 94.9272 154.37C97.0436 154.37 98.6539 153.803 99.7581 152.668C100.893 151.533 101.46 149.984 101.46 148.021V126.949H107.534V147.837C107.534 150.291 107.027 152.422 106.015 154.232C105.034 156.011 103.592 157.391 101.69 158.373C99.8195 159.324 97.565 159.799 94.9272 159.799Z" fill="#1F2333"/>
<path d="M121.418 159.155V126.949H135.405C137.43 126.949 139.193 127.302 140.696 128.007C142.199 128.713 143.365 129.709 144.193 130.998C145.021 132.286 145.435 133.804 145.435 135.553V136.105C145.435 138.037 144.975 139.601 144.055 140.798C143.135 141.994 142 142.868 140.65 143.42V144.248C141.877 144.31 142.828 144.739 143.503 145.536C144.177 146.303 144.515 147.331 144.515 148.619V159.155H138.442V149.493C138.442 148.757 138.242 148.159 137.844 147.699C137.476 147.239 136.847 147.009 135.957 147.009H127.492V159.155H121.418ZM127.492 141.488H134.761C136.203 141.488 137.322 141.104 138.12 140.337C138.948 139.54 139.362 138.497 139.362 137.209V136.749C139.362 135.461 138.963 134.433 138.166 133.666C137.368 132.869 136.233 132.47 134.761 132.47H127.492V141.488Z" fill="#1F2333"/>
<path fill-rule="evenodd" clip-rule="evenodd" d="M48.2693 159.913V126.191H70.4896V133.228H55.8588V139.395H69.2013V146.433H55.8588V152.876H70.7656V159.913H48.2693ZM87.7719 159.048L87.7654 159.044C85.7702 157.998 84.2202 156.516 83.1338 154.607L83.13 154.6L83.1263 154.594C82.0741 152.654 81.5623 150.393 81.5623 147.837V126.191H89.1518V148.021C89.1518 149.834 89.6569 151.175 90.5898 152.135C91.5415 153.085 92.9477 153.612 94.9269 153.612C96.9101 153.612 98.2961 153.083 99.2144 152.139L99.2217 152.132C100.184 151.17 100.702 149.831 100.702 148.021V126.191H108.291V147.837C108.291 150.395 107.763 152.659 106.678 154.6C105.62 156.517 104.065 158 102.038 159.047L102.034 159.049C100.032 160.066 97.6542 160.557 94.9269 160.557C92.1991 160.557 89.8078 160.066 87.7785 159.051L87.7719 159.048ZM106.015 154.232C107.027 152.422 107.534 150.291 107.534 147.837V126.949H101.46V148.021C101.46 149.984 100.893 151.533 99.7581 152.668C98.6539 153.803 97.0436 154.37 94.9272 154.37C92.8108 154.37 91.1851 153.803 90.0503 152.668C88.946 151.533 88.3939 149.984 88.3939 148.021V126.949H82.3208V147.837C82.3208 150.291 82.8115 152.422 83.7931 154.232C84.8053 156.011 86.2469 157.391 88.1179 158.373C90.0196 159.324 92.2894 159.799 94.9272 159.799C97.565 159.799 99.8195 159.324 101.69 158.373C103.592 157.391 105.034 156.011 106.015 154.232ZM120.66 159.913V126.191H135.405C137.517 126.191 139.395 126.559 141.018 127.321C142.639 128.082 143.919 129.169 144.83 130.588C145.748 132.015 146.193 133.68 146.193 135.553V136.105C146.193 138.157 145.703 139.898 144.655 141.26C143.876 142.273 142.95 143.079 141.878 143.671C142.749 143.904 143.493 144.354 144.076 145.041C144.899 145.979 145.273 147.199 145.273 148.619V159.913H137.683V149.493C137.683 148.9 137.526 148.49 137.27 148.195L137.261 148.184L137.251 148.173C137.088 147.969 136.736 147.767 135.957 147.767H128.25V159.913H120.66ZM127.492 147.009H135.957C136.847 147.009 137.476 147.239 137.844 147.699C138.242 148.159 138.442 148.757 138.442 149.493V159.155H144.515V148.619C144.515 147.331 144.177 146.303 143.503 145.536C142.828 144.739 141.877 144.31 140.65 144.248V143.42C142 142.868 143.135 141.994 144.055 140.798C144.975 139.601 145.435 138.037 145.435 136.105V135.553C145.435 133.804 145.021 132.286 144.193 130.998C143.365 129.709 142.199 128.713 140.696 128.007C139.193 127.302 137.43 126.949 135.405 126.949H121.418V159.155H127.492V147.009ZM137.635 134.208L137.629 134.202C137.014 133.587 136.096 133.228 134.761 133.228H128.25V140.73H134.761C136.068 140.73 136.976 140.385 137.594 139.791C138.255 139.155 138.603 138.318 138.603 137.209V136.749C138.603 135.63 138.264 134.813 137.64 134.213L137.635 134.208ZM138.12 140.337C137.322 141.104 136.203 141.488 134.761 141.488H127.492V132.47H134.761C136.233 132.47 137.368 132.869 138.166 133.666C138.963 134.433 139.362 135.461 139.362 136.749V137.209C139.362 138.497 138.948 139.54 138.12 140.337Z" fill="#1F2333"/>
</g>
<g clip-path="url(#clip1_6707_287856)">
<path d="M97.4709 79.3289C117.353 79.3289 133.471 63.2111 133.471 43.3289C133.471 23.4466 117.353 7.32886 97.4709 7.32886C77.5887 7.32886 61.4709 23.4466 61.4709 43.3289C61.4709 63.2111 77.5887 79.3289 97.4709 79.3289Z" fill="#FF0420"/>
<path d="M86.9782 52.8971C84.8346 52.8971 83.0784 52.3927 81.7094 51.384C80.3584 50.3573 79.6829 48.8982 79.6829 47.0068C79.6829 46.6105 79.7279 46.1241 79.8179 45.5477C80.0522 44.2508 80.3854 42.6926 80.8177 40.8733C82.0426 35.9197 85.204 33.4429 90.3017 33.4429C91.6887 33.4429 92.9316 33.677 94.0304 34.1453C95.1293 34.5956 95.9939 35.2802 96.6243 36.1989C97.2547 37.0995 97.5701 38.1803 97.5701 39.4412C97.5701 39.8195 97.525 40.2968 97.4349 40.8733C97.1647 42.4764 96.8405 44.0346 96.4622 45.5477C95.8317 48.0155 94.7419 49.8619 93.1928 51.0868C91.6436 52.2936 89.5722 52.8971 86.9782 52.8971ZM87.3565 49.0062C88.3653 49.0062 89.2208 48.709 89.9234 48.1146C90.644 47.5202 91.1574 46.6105 91.4635 45.3857C91.8778 43.6924 92.1931 42.2152 92.4093 40.9543C92.4813 40.5761 92.5173 40.1888 92.5173 39.7924C92.5173 38.1533 91.6616 37.3336 89.9505 37.3336C88.9416 37.3336 88.0771 37.6308 87.3565 38.2253C86.654 38.8198 86.1496 39.7295 85.8435 40.9543C85.5192 42.1612 85.1949 43.6384 84.8707 45.3857C84.7986 45.7458 84.7626 46.1241 84.7626 46.5204C84.7626 48.1777 85.6273 49.0062 87.3565 49.0062Z" fill="white"/>
<path d="M98.8105 52.627C98.6124 52.627 98.4592 52.5639 98.3512 52.4378C98.261 52.2936 98.2341 52.1316 98.2701 51.9515L101.999 34.3885C102.035 34.1904 102.134 34.0282 102.296 33.9021C102.458 33.7761 102.629 33.713 102.809 33.713H109.997C111.996 33.713 113.599 34.1273 114.806 34.9559C116.031 35.7846 116.644 36.9824 116.644 38.5495C116.644 38.9998 116.59 39.4683 116.481 39.9545C116.031 42.0261 115.122 43.5573 113.753 44.548C112.402 45.5387 110.546 46.0341 108.186 46.0341H104.539L103.296 51.9515C103.26 52.1496 103.161 52.3116 102.999 52.4378C102.836 52.5639 102.665 52.627 102.485 52.627H98.8105ZM108.376 42.3053C109.132 42.3053 109.79 42.0981 110.348 41.6838C110.924 41.2696 111.303 40.6751 111.483 39.9005C111.537 39.5943 111.564 39.3241 111.564 39.09C111.564 38.5675 111.411 38.1713 111.105 37.9011C110.798 37.6128 110.276 37.4688 109.537 37.4688H106.295L105.268 42.3053H108.376Z" fill="white"/>
</g>
<defs>
<linearGradient id="paint0_linear_6707_287856" x1="31.4882" y1="156.014" x2="140.009" y2="59.4956" gradientUnits="userSpaceOnUse">
<stop offset="0.0729167" stop-color="#AAC4FD"/>
<stop offset="1" stop-color="#76A0FC"/>
</linearGradient>
<clipPath id="clip0_6707_287856">
<rect width="195" height="195" fill="white"/>
</clipPath>
<clipPath id="clip1_6707_287856">
<rect width="72" height="72" fill="white" transform="translate(61.4709 7.32886)"/>
</clipPath>
</defs>
</svg>
