<svg
  width="203"
  height="203"
  viewBox="0 0 203 203"
  fill="none"
  xmlns="http://www.w3.org/2000/svg"
>
<g filter="url(#filter0_d_3105_38968)">
<circle
      cx="101.537"
      cy="97.4913"
      r="97.1349"
      fill="url(#paint0_linear_3105_38968)"
    />
</g>
<g opacity="0.5" filter="url(#filter1_d_3105_38968)">
<path
      d="M154.658 84.1138L101.602 29.9355L48.54 84.1138L75.0683 111.2L101.602 84.1138L128.13 111.2L154.658 84.1138Z"
      fill="white"
    />
</g>
<g filter="url(#filter2_d_3105_38968)">
<path
      d="M53.5729 159.489V127.289H74.2729V132.809H59.6449V140.491H72.9849V146.011H59.6449V153.969H74.5489V159.489H53.5729ZM99.4636 160.133C96.8262 160.133 94.5569 159.658 92.6556 158.707C90.7849 157.726 89.3436 156.346 88.3316 154.567C87.3502 152.758 86.8596 150.627 86.8596 148.173V127.289H92.9316V148.357C92.9316 150.32 93.4836 151.869 94.5876 153.003C95.7222 154.138 97.3476 154.705 99.4636 154.705C101.58 154.705 103.19 154.138 104.294 153.003C105.428 151.869 105.996 150.32 105.996 148.357V127.289H112.068V148.173C112.068 150.627 111.562 152.758 110.55 154.567C109.568 156.346 108.127 157.726 106.226 158.707C104.355 159.658 102.101 160.133 99.4636 160.133ZM125.95 159.489V127.289H139.934C141.958 127.289 143.721 127.642 145.224 128.347C146.726 129.053 147.892 130.049 148.72 131.337C149.548 132.625 149.962 134.143 149.962 135.891V136.443C149.962 138.375 149.502 139.939 148.582 141.135C147.662 142.331 146.527 143.205 145.178 143.757V144.585C146.404 144.647 147.355 145.076 148.03 145.873C148.704 146.64 149.042 147.667 149.042 148.955V159.489H142.97V149.829C142.97 149.093 142.77 148.495 142.372 148.035C142.004 147.575 141.375 147.345 140.486 147.345H132.022V159.489H125.95ZM132.022 141.825H139.29C140.731 141.825 141.85 141.442 142.648 140.675C143.476 139.878 143.89 138.835 143.89 137.547V137.087C143.89 135.799 143.491 134.772 142.694 134.005C141.896 133.208 140.762 132.809 139.29 132.809H132.022V141.825Z"
      fill="#1F2333"
    />
<path
      d="M53.5729 159.489H52.8148V160.247H53.5729V159.489ZM53.5729 127.289V126.531H52.8148V127.289H53.5729ZM74.2729 127.289H75.0309V126.531H74.2729V127.289ZM74.2729 132.809V133.567H75.0309V132.809H74.2729ZM59.6449 132.809V132.051H58.8868V132.809H59.6449ZM59.6449 140.491H58.8868V141.249H59.6449V140.491ZM72.9849 140.491H73.7429V139.733H72.9849V140.491ZM72.9849 146.011V146.769H73.7429V146.011H72.9849ZM59.6449 146.011V145.253H58.8868V146.011H59.6449ZM59.6449 153.969H58.8868V154.727H59.6449V153.969ZM74.5489 153.969H75.3069V153.211H74.5489V153.969ZM74.5489 159.489V160.247H75.3069V159.489H74.5489ZM54.3309 159.489V127.289H52.8148V159.489H54.3309ZM53.5729 128.047H74.2729V126.531H53.5729V128.047ZM73.5148 127.289V132.809H75.0309V127.289H73.5148ZM74.2729 132.051H59.6449V133.567H74.2729V132.051ZM58.8868 132.809V140.491H60.4029V132.809H58.8868ZM59.6449 141.249H72.9849V139.733H59.6449V141.249ZM72.2268 140.491V146.011H73.7429V140.491H72.2268ZM72.9849 145.253H59.6449V146.769H72.9849V145.253ZM58.8868 146.011V153.969H60.4029V146.011H58.8868ZM59.6449 154.727H74.5489V153.211H59.6449V154.727ZM73.7908 153.969V159.489H75.3069V153.969H73.7908ZM74.5489 158.731H53.5729V160.247H74.5489V158.731ZM92.6556 158.707L92.3034 159.379L92.31 159.382L92.3166 159.385L92.6556 158.707ZM88.3316 154.567L87.6652 154.929L87.6689 154.935L87.6727 154.942L88.3316 154.567ZM86.8596 127.289V126.531H86.1015V127.289H86.8596ZM92.9316 127.289H93.6896V126.531H92.9316V127.289ZM94.5876 153.003L94.0442 153.532L94.0516 153.539L94.5876 153.003ZM104.294 153.003L103.758 152.467L103.75 152.475L104.294 153.003ZM105.996 127.289V126.531H105.238V127.289H105.996ZM112.068 127.289H112.826V126.531H112.068V127.289ZM110.55 154.567L109.888 154.197L109.886 154.201L110.55 154.567ZM106.226 158.707L106.569 159.383L106.573 159.381L106.226 158.707ZM99.4636 159.375C96.9162 159.375 94.7684 158.916 92.9946 158.029L92.3166 159.385C94.3454 160.4 96.7363 160.891 99.4636 160.891V159.375ZM93.0077 158.036C91.2612 157.12 89.9283 155.841 88.9904 154.192L87.6727 154.942C88.7589 156.851 90.3086 158.332 92.3034 159.379L93.0077 158.036ZM88.9979 154.206C88.0873 152.527 87.6176 150.525 87.6176 148.173H86.1015C86.1015 150.729 86.6132 152.989 87.6652 154.929L88.9979 154.206ZM87.6176 148.173V127.289H86.1015V148.173H87.6176ZM86.8596 128.047H92.9316V126.531H86.8596V128.047ZM92.1735 127.289V148.357H93.6896V127.289H92.1735ZM92.1735 148.357C92.1735 150.467 92.7713 152.224 94.0443 153.532L95.1309 152.475C94.1958 151.514 93.6896 150.172 93.6896 148.357H92.1735ZM94.0516 153.539C95.3693 154.857 97.213 155.463 99.4636 155.463V153.947C97.4822 153.947 96.0751 153.419 95.1236 152.467L94.0516 153.539ZM99.4636 155.463C101.713 155.463 103.547 154.858 104.837 153.532L103.75 152.475C102.832 153.418 101.446 153.947 99.4636 153.947V155.463ZM104.83 153.539C106.137 152.232 106.754 150.473 106.754 148.357H105.238C105.238 150.167 104.72 151.505 103.758 152.467L104.83 153.539ZM106.754 148.357V127.289H105.238V148.357H106.754ZM105.996 128.047H112.068V126.531H105.996V128.047ZM111.31 127.289V148.173H112.826V127.289H111.31ZM111.31 148.173C111.31 150.521 110.826 152.52 109.888 154.197L111.211 154.937C112.297 152.996 112.826 150.732 112.826 148.173H111.31ZM109.886 154.201C108.981 155.841 107.653 157.117 105.878 158.034L106.573 159.381C108.601 158.334 110.155 156.851 111.213 154.933L109.886 154.201ZM105.882 158.031C104.142 158.916 102.011 159.375 99.4636 159.375V160.891C102.19 160.891 104.568 160.4 106.569 159.383L105.882 158.031ZM125.95 159.489H125.192V160.247H125.95V159.489ZM125.95 127.289V126.531H125.192V127.289H125.95ZM145.224 128.347L144.902 129.033L145.224 128.347ZM148.72 131.337L149.357 130.927V130.927L148.72 131.337ZM148.582 141.135L149.183 141.597L148.582 141.135ZM145.178 143.757L144.891 143.056L144.42 143.248V143.757H145.178ZM145.178 144.585H144.42V145.306L145.14 145.342L145.178 144.585ZM148.03 145.873L147.451 146.363L147.456 146.369L147.461 146.374L148.03 145.873ZM149.042 159.489V160.247H149.8V159.489H149.042ZM142.97 159.489H142.212V160.247H142.97V159.489ZM142.372 148.035L141.78 148.509L141.789 148.52L141.799 148.532L142.372 148.035ZM132.022 147.345V146.587H131.264V147.345H132.022ZM132.022 159.489V160.247H132.78V159.489H132.022ZM132.022 141.825H131.264V142.583H132.022V141.825ZM142.648 140.675L143.173 141.222L143.174 141.221L142.648 140.675ZM142.694 134.005L142.158 134.541L142.163 134.547L142.168 134.552L142.694 134.005ZM132.022 132.809V132.051H131.264V132.809H132.022ZM126.708 159.489V127.289H125.192V159.489H126.708ZM125.95 128.047H139.934V126.531H125.95V128.047ZM139.934 128.047C141.87 128.047 143.519 128.385 144.902 129.033L145.546 127.661C143.923 126.899 142.045 126.531 139.934 126.531V128.047ZM144.902 129.033C146.287 129.683 147.338 130.589 148.082 131.747L149.357 130.927C148.446 129.509 147.166 128.422 145.546 127.661L144.902 129.033ZM148.082 131.747C148.821 132.896 149.204 134.267 149.204 135.891H150.72C150.72 134.019 150.275 132.354 149.357 130.927L148.082 131.747ZM149.204 135.891V136.443H150.72V135.891H149.204ZM149.204 136.443C149.204 138.255 148.774 139.643 147.981 140.673L149.183 141.597C150.23 140.236 150.72 138.495 150.72 136.443H149.204ZM147.981 140.673C147.14 141.767 146.112 142.556 144.891 143.056L145.465 144.459C146.943 143.854 148.184 142.896 149.183 141.597L147.981 140.673ZM144.42 143.757V144.585H145.936V143.757H144.42ZM145.14 145.342C146.197 145.395 146.936 145.754 147.451 146.363L148.608 145.384C147.774 144.398 146.612 143.898 145.216 143.828L145.14 145.342ZM147.461 146.374C147.984 146.969 148.284 147.802 148.284 148.955H149.8C149.8 147.533 149.425 146.311 148.599 145.372L147.461 146.374ZM148.284 148.955V159.489H149.8V148.955H148.284ZM149.042 158.731H142.97V160.247H149.042V158.731ZM143.728 159.489V149.829H142.212V159.489H143.728ZM143.728 149.829C143.728 148.951 143.487 148.164 142.945 147.539L141.799 148.532C142.054 148.826 142.212 149.236 142.212 149.829H143.728ZM142.964 147.562C142.391 146.845 141.485 146.587 140.486 146.587V148.103C141.265 148.103 141.617 148.305 141.78 148.509L142.964 147.562ZM140.486 146.587H132.022V148.103H140.486V146.587ZM131.264 147.345V159.489H132.78V147.345H131.264ZM132.022 158.731H125.95V160.247H132.022V158.731ZM132.022 142.583H139.29V141.067H132.022V142.583ZM139.29 142.583C140.866 142.583 142.196 142.161 143.173 141.222L142.122 140.129C141.505 140.722 140.597 141.067 139.29 141.067V142.583ZM143.174 141.221C144.169 140.263 144.648 139.014 144.648 137.547H143.132C143.132 138.657 142.783 139.493 142.122 140.129L143.174 141.221ZM144.648 137.547V137.087H143.132V137.547H144.648ZM144.648 137.087C144.648 135.63 144.19 134.392 143.219 133.459L142.168 134.552C142.793 135.152 143.132 135.969 143.132 137.087H144.648ZM143.23 133.469C142.251 132.49 140.899 132.051 139.29 132.051V133.567C140.625 133.567 141.542 133.926 142.158 134.541L143.23 133.469ZM139.29 132.051H132.022V133.567H139.29V132.051ZM131.264 132.809V141.825H132.78V132.809H131.264Z"
      fill="#1F2333"
    />
</g>
<g filter="url(#filter3_d_3105_38968)">
<circle cx="101.599" cy="44.0183" r="36.0291" fill="white" />
<path
      d="M110.824 38.8717C110.157 38.48 109.287 38.48 108.547 38.8717L103.325 41.8959L99.7787 43.8686L94.557 46.8929C93.8897 47.2845 93.0194 47.2845 92.2797 46.8929L88.1313 44.5286C87.464 44.137 86.9926 43.4117 86.9926 42.6212V37.9579C86.9926 37.1673 87.3915 36.4494 88.1313 36.0505L92.2144 33.7514C92.8816 33.3598 93.7519 33.3598 94.4917 33.7514L98.5748 36.0505C99.242 36.4421 99.7134 37.1673 99.7134 37.9579V40.9821L103.26 38.9442V35.9199C103.26 35.1294 102.861 34.4114 102.121 34.0125L94.5642 29.6756C93.897 29.2839 93.0267 29.2839 92.2869 29.6756L84.5993 34.0125C83.8596 34.4042 83.4607 35.1294 83.4607 35.9199V44.6591C83.4607 45.4497 83.8596 46.1676 84.5993 46.5665L92.2942 50.9035C92.9614 51.2951 93.8317 51.2951 94.5715 50.9035L99.7932 47.9445L103.34 45.9066L108.561 42.9476C109.229 42.5559 110.099 42.5559 110.839 42.9476L114.922 45.2466C115.589 45.6382 116.06 46.3635 116.06 47.154V51.8173C116.06 52.6078 115.662 53.3258 114.922 53.7247L110.839 56.089C110.171 56.4806 109.301 56.4806 108.561 56.089L104.478 53.79C103.811 53.3983 103.34 52.6731 103.34 51.8826V48.8583L99.7932 50.8962V53.9205C99.7932 54.711 100.192 55.429 100.932 55.8279L108.627 60.1649C109.294 60.5565 110.164 60.5565 110.904 60.1649L118.599 55.8279C119.266 55.4363 119.737 54.711 119.737 53.9205V45.1813C119.737 44.3908 119.339 43.6728 118.599 43.2739L110.824 38.8717Z"
      fill="#8247E5"
    />
</g>
<defs>
<filter
      id="filter0_d_3105_38968"
      x="0.4021"
      y="0.356445"
      width="202.27"
      height="202.27"
      filterUnits="userSpaceOnUse"
      color-interpolation-filters="sRGB"
    >
<feFlood flood-opacity="0" result="BackgroundImageFix" />
<feColorMatrix
        in="SourceAlpha"
        type="matrix"
        values="0 0 0 0 0 0 0 0 0 0 0 0 0 0 0 0 0 0 127 0"
        result="hardAlpha"
      />
<feOffset dy="4" />
<feGaussianBlur stdDeviation="2" />
<feComposite in2="hardAlpha" operator="out" />
<feColorMatrix
        type="matrix"
        values="0 0 0 0 0 0 0 0 0 0 0 0 0 0 0 0 0 0 0.25 0"
      />
<feBlend
        mode="normal"
        in2="BackgroundImageFix"
        result="effect1_dropShadow_3105_38968"
      />
<feBlend
        mode="normal"
        in="SourceGraphic"
        in2="effect1_dropShadow_3105_38968"
        result="shape"
      />
</filter>
<filter
      id="filter1_d_3105_38968"
      x="43.5369"
      y="28.8564"
      width="116"
      height="91"
      filterUnits="userSpaceOnUse"
      color-interpolation-filters="sRGB"
    >
<feFlood flood-opacity="0" result="BackgroundImageFix" />
<feColorMatrix
        in="SourceAlpha"
        type="matrix"
        values="0 0 0 0 0 0 0 0 0 0 0 0 0 0 0 0 0 0 127 0"
        result="hardAlpha"
      />
<feOffset dy="4" />
<feGaussianBlur stdDeviation="2" />
<feComposite in2="hardAlpha" operator="out" />
<feColorMatrix
        type="matrix"
        values="0 0 0 0 0 0 0 0 0 0 0 0 0 0 0 0 0 0 0.25 0"
      />
<feBlend
        mode="normal"
        in2="BackgroundImageFix"
        result="effect1_dropShadow_3105_38968"
      />
<feBlend
        mode="normal"
        in="SourceGraphic"
        in2="effect1_dropShadow_3105_38968"
        result="shape"
      />
</filter>
<filter
      id="filter2_d_3105_38968"
      x="49.5729"
      y="127.289"
      width="104.389"
      height="40.8438"
      filterUnits="userSpaceOnUse"
      color-interpolation-filters="sRGB"
    >
<feFlood flood-opacity="0" result="BackgroundImageFix" />
<feColorMatrix
        in="SourceAlpha"
        type="matrix"
        values="0 0 0 0 0 0 0 0 0 0 0 0 0 0 0 0 0 0 127 0"
        result="hardAlpha"
      />
<feOffset dy="4" />
<feGaussianBlur stdDeviation="2" />
<feComposite in2="hardAlpha" operator="out" />
<feColorMatrix
        type="matrix"
        values="0 0 0 0 0 0 0 0 0 0 0 0 0 0 0 0 0 0 0.25 0"
      />
<feBlend
        mode="normal"
        in2="BackgroundImageFix"
        result="effect1_dropShadow_3105_38968"
      />
<feBlend
        mode="normal"
        in="SourceGraphic"
        in2="effect1_dropShadow_3105_38968"
        result="shape"
      />
</filter>
<filter
      id="filter3_d_3105_38968"
      x="61.5701"
      y="7.98926"
      width="80.0581"
      height="80.0586"
      filterUnits="userSpaceOnUse"
      color-interpolation-filters="sRGB"
    >
<feFlood flood-opacity="0" result="BackgroundImageFix" />
<feColorMatrix
        in="SourceAlpha"
        type="matrix"
        values="0 0 0 0 0 0 0 0 0 0 0 0 0 0 0 0 0 0 127 0"
        result="hardAlpha"
      />
<feOffset dy="4" />
<feGaussianBlur stdDeviation="2" />
<feComposite in2="hardAlpha" operator="out" />
<feColorMatrix
        type="matrix"
        values="0 0 0 0 0 0 0 0 0 0 0 0 0 0 0 0 0 0 0.25 0"
      />
<feBlend
        mode="normal"
        in2="BackgroundImageFix"
        result="effect1_dropShadow_3105_38968"
      />
<feBlend
        mode="normal"
        in="SourceGraphic"
        in2="effect1_dropShadow_3105_38968"
        result="shape"
      />
</filter>
<linearGradient
      id="paint0_linear_3105_38968"
      x1="101.537"
      y1="-18.8296"
      x2="0.0492213"
      y2="109.113"
      gradientUnits="userSpaceOnUse"
    >
<stop stop-color="#87DCC9" />
<stop offset="1" stop-color="#FDCEAA" />
</linearGradient>
</defs>
</svg>
