<svg
  width="196"
  height="195"
  viewBox="0 0 196 195"
  fill="none"
  xmlns="http://www.w3.org/2000/svg"
>
<circle
    cx="98.0321"
    cy="97.4469"
    r="97.1349"
    fill="url(#paint0_linear_3180_39637)"
  />
<g opacity="0.7">
<path
      d="M151.153 84.0695L98.0967 29.8913L45.0352 84.0695L71.5634 111.156L98.0967 84.0695L124.625 111.156L151.153 84.0695Z"
      fill="white"
    />
</g>
<path
    d="M49.8376 159.445V127.245H70.5376V132.765H55.9096V140.447H69.2496V145.967H55.9096V153.925H70.8136V159.445H49.8376Z"
    fill="#1F2333"
  />
<path
    d="M95.7283 160.089C93.091 160.089 90.8217 159.614 88.9203 158.663C87.0497 157.682 85.6083 156.302 84.5963 154.523C83.615 152.714 83.1243 150.582 83.1243 148.129V127.245H89.1963V148.313C89.1963 150.276 89.7483 151.824 90.8523 152.959C91.987 154.094 93.6123 154.661 95.7283 154.661C97.8443 154.661 99.4543 154.094 100.558 152.959C101.693 151.824 102.26 150.276 102.26 148.313V127.245H108.332V148.129C108.332 150.582 107.826 152.714 106.814 154.523C105.833 156.302 104.392 157.682 102.49 158.663C100.62 159.614 98.3657 160.089 95.7283 160.089Z"
    fill="#1F2333"
  />
<path
    d="M122.215 159.445V127.245H136.199C138.223 127.245 139.986 127.598 141.489 128.303C142.991 129.008 144.157 130.005 144.985 131.293C145.813 132.581 146.227 134.099 146.227 135.847V136.399C146.227 138.331 145.767 139.895 144.847 141.091C143.927 142.287 142.792 143.161 141.443 143.713V144.541C142.669 144.602 143.62 145.032 144.295 145.829C144.969 146.596 145.307 147.623 145.307 148.911V159.445H139.235V149.785C139.235 149.049 139.035 148.451 138.637 147.991C138.269 147.531 137.64 147.301 136.751 147.301H128.287V159.445H122.215ZM128.287 141.781H135.555C136.996 141.781 138.115 141.398 138.913 140.631C139.741 139.834 140.155 138.791 140.155 137.503V137.043C140.155 135.755 139.756 134.728 138.959 133.961C138.161 133.164 137.027 132.765 135.555 132.765H128.287V141.781Z"
    fill="#1F2333"
  />
<path
    fill-rule="evenodd"
    clip-rule="evenodd"
    d="M49.0796 160.203V126.487H71.2956V133.523H56.6676V139.689H70.0076V146.725H56.6676V153.167H71.5716V160.203H49.0796ZM55.9096 153.925V145.967H69.2496V140.447H55.9096V132.765H70.5376V127.245H49.8376V159.445H70.8136V153.925H55.9096ZM88.5747 159.338L88.5682 159.334C86.5734 158.288 85.0236 156.807 83.9375 154.898L83.9337 154.891L83.93 154.884C82.8779 152.944 82.3663 150.684 82.3663 148.129V126.487H89.9543V148.313C89.9543 150.126 90.4593 151.466 91.392 152.427C92.3435 153.376 93.7495 153.903 95.7283 153.903C97.7111 153.903 99.0968 153.374 100.015 152.43L100.022 152.423C100.984 151.461 101.502 150.122 101.502 148.313V126.487H109.09V148.129C109.09 150.687 108.562 152.95 107.477 154.891C106.419 156.807 104.865 158.29 102.838 159.336L102.834 159.339C100.833 160.355 98.4551 160.847 95.7283 160.847C93.001 160.847 90.6102 160.355 88.5813 159.341L88.5747 159.338ZM106.814 154.523C107.826 152.714 108.332 150.582 108.332 148.129V127.245H102.26V148.313C102.26 150.276 101.693 151.824 100.558 152.959C99.4543 154.094 97.8443 154.661 95.7283 154.661C93.6123 154.661 91.987 154.094 90.8523 152.959C89.7483 151.824 89.1963 150.276 89.1963 148.313V127.245H83.1243V148.129C83.1243 150.582 83.615 152.714 84.5963 154.523C85.6083 156.302 87.0497 157.682 88.9203 158.663C90.8217 159.614 93.091 160.089 95.7283 160.089C98.3657 160.089 100.62 159.614 102.49 158.663C104.392 157.682 105.833 156.302 106.814 154.523ZM121.457 160.203V126.487H136.199C138.31 126.487 140.188 126.855 141.811 127.617C143.431 128.377 144.711 129.465 145.622 130.883C146.539 132.31 146.985 133.975 146.985 135.847V136.399C146.985 138.451 146.495 140.191 145.447 141.553C144.669 142.566 143.742 143.372 142.671 143.964C143.542 144.196 144.285 144.647 144.868 145.334C145.691 146.271 146.065 147.491 146.065 148.911V160.203H138.477V149.785C138.477 149.191 138.319 148.782 138.064 148.487L138.054 148.476L138.045 148.464C137.882 148.261 137.53 148.059 136.751 148.059H129.045V160.203H121.457ZM128.287 147.301H136.751C137.64 147.301 138.269 147.531 138.637 147.991C139.035 148.451 139.235 149.049 139.235 149.785V159.445H145.307V148.911C145.307 147.623 144.969 146.596 144.295 145.829C143.62 145.032 142.669 144.602 141.443 144.541V143.713C142.792 143.161 143.927 142.287 144.847 141.091C145.767 139.895 146.227 138.331 146.227 136.399V135.847C146.227 134.099 145.813 132.581 144.985 131.293C144.157 130.005 142.991 129.008 141.489 128.303C139.986 127.598 138.223 127.245 136.199 127.245H122.215V159.445H128.287V147.301ZM138.428 134.502L138.423 134.497C137.807 133.881 136.889 133.523 135.555 133.523H129.045V141.023H135.555C136.861 141.023 137.77 140.678 138.387 140.085C139.048 139.448 139.397 138.612 139.397 137.503V137.043C139.397 135.924 139.057 135.107 138.433 134.507L138.428 134.502ZM138.913 140.631C138.115 141.398 136.996 141.781 135.555 141.781H128.287V132.765H135.555C137.027 132.765 138.161 133.164 138.959 133.961C139.756 134.728 140.155 135.755 140.155 137.043V137.503C140.155 138.791 139.741 139.834 138.913 140.631Z"
    fill="#1F2333"
  />
<g clip-path="url(#clip0_3180_39637)">
<path
      d="M98.0322 80.022C117.914 80.022 134.032 63.9042 134.032 44.022C134.032 24.1397 117.914 8.02197 98.0322 8.02197C78.15 8.02197 62.0322 24.1397 62.0322 44.022C62.0322 63.9042 78.15 80.022 98.0322 80.022Z"
      fill="#FF0420"
    />
<path
      d="M87.5395 53.5902C85.3959 53.5902 83.6397 53.0857 82.2707 52.077C80.9196 51.0503 80.2441 49.5913 80.2441 47.6999C80.2441 47.3036 80.2892 46.8171 80.3792 46.2407C80.6135 44.9438 80.9467 43.3856 81.379 41.5663C82.6039 36.6127 85.7652 34.1359 90.863 34.1359C92.25 34.1359 93.4929 34.3701 94.5917 34.8384C95.6906 35.2886 96.5552 35.9732 97.1856 36.8919C97.816 37.7925 98.1314 38.8734 98.1314 40.1342C98.1314 40.5125 98.0863 40.9899 97.9962 41.5663C97.726 43.1695 97.4017 44.7277 97.0235 46.2407C96.393 48.7086 95.3032 50.5549 93.7541 51.7798C92.2049 52.9867 90.1335 53.5902 87.5395 53.5902ZM87.9178 49.6993C88.9266 49.6993 89.7821 49.4021 90.4847 48.8077C91.2053 48.2132 91.7186 47.3036 92.0248 46.0787C92.4391 44.3854 92.7544 42.9083 92.9706 41.6474C93.0426 41.2691 93.0786 40.8819 93.0786 40.4855C93.0786 38.8463 92.2229 38.0267 90.5118 38.0267C89.5029 38.0267 88.6383 38.3239 87.9178 38.9183C87.2153 39.5129 86.7109 40.4225 86.4047 41.6474C86.0805 42.8543 85.7562 44.3314 85.432 46.0787C85.3599 46.4389 85.3239 46.8171 85.3239 47.2134C85.3239 48.8707 86.1886 49.6993 87.9178 49.6993Z"
      fill="white"
    />
<path
      d="M99.3718 53.32C99.1736 53.32 99.0204 53.257 98.9124 53.1308C98.8223 52.9867 98.7954 52.8247 98.8314 52.6445L102.56 35.0816C102.596 34.8834 102.695 34.7213 102.857 34.5951C103.019 34.4691 103.191 34.4061 103.371 34.4061H110.558C112.557 34.4061 114.161 34.8204 115.367 35.6489C116.592 36.4777 117.205 37.6754 117.205 39.2426C117.205 39.6929 117.151 40.1613 117.043 40.6476C116.592 42.7192 115.683 44.2503 114.314 45.2411C112.963 46.2318 111.107 46.7271 108.748 46.7271H105.1L103.857 52.6445C103.821 52.8427 103.722 53.0047 103.56 53.1308C103.398 53.257 103.227 53.32 103.047 53.32H99.3718ZM108.937 42.9984C109.693 42.9984 110.351 42.7912 110.909 42.3769C111.486 41.9626 111.864 41.3682 112.044 40.5936C112.098 40.2873 112.125 40.0172 112.125 39.783C112.125 39.2606 111.972 38.8643 111.666 38.5942C111.36 38.3059 110.837 38.1619 110.099 38.1619H106.856L105.829 42.9984H108.937Z"
      fill="white"
    />
</g>
<defs>
<linearGradient
      id="paint0_linear_3180_39637"
      x1="97.8973"
      y1="0.575726"
      x2="1.46327"
      y2="108.039"
      gradientUnits="userSpaceOnUse"
    >
<stop stop-color="#87DCC9" />
<stop offset="1" stop-color="#FDCEAA" />
</linearGradient>
<clipPath id="clip0_3180_39637">
<rect
        width="72"
        height="72"
        fill="white"
        transform="translate(62.0322 8.02197)"
      />
</clipPath>
</defs>
</svg>
