<svg width="199" height="199" viewBox="0 0 199 199" fill="none" xmlns="http://www.w3.org/2000/svg">
<circle cx="99.4975" cy="99.6615" r="98.7265" fill="url(#paint0_linear_3180_39635)"/>
<path d="M49.8376 160.445V128.245H70.5376V133.765H55.9096V141.447H69.2496V146.967H55.9096V154.925H70.8136V160.445H49.8376Z" fill="#1F2333"/>
<path d="M95.7283 161.089C93.091 161.089 90.8217 160.614 88.9203 159.663C87.0497 158.682 85.6083 157.302 84.5963 155.523C83.615 153.714 83.1243 151.582 83.1243 149.129V128.245H89.1963V149.313C89.1963 151.276 89.7483 152.824 90.8523 153.959C91.987 155.094 93.6123 155.661 95.7283 155.661C97.8443 155.661 99.4543 155.094 100.558 153.959C101.693 152.824 102.26 151.276 102.26 149.313V128.245H108.332V149.129C108.332 151.582 107.826 153.714 106.814 155.523C105.833 157.302 104.392 158.682 102.49 159.663C100.62 160.614 98.3657 161.089 95.7283 161.089Z" fill="#1F2333"/>
<path d="M122.215 160.445V128.245H136.199C138.223 128.245 139.986 128.598 141.489 129.303C142.991 130.008 144.157 131.005 144.985 132.293C145.813 133.581 146.227 135.099 146.227 136.847V137.399C146.227 139.331 145.767 140.895 144.847 142.091C143.927 143.287 142.792 144.161 141.443 144.713V145.541C142.669 145.602 143.62 146.032 144.295 146.829C144.969 147.596 145.307 148.623 145.307 149.911V160.445H139.235V150.785C139.235 150.049 139.035 149.451 138.637 148.991C138.269 148.531 137.64 148.301 136.751 148.301H128.287V160.445H122.215ZM128.287 142.781H135.555C136.996 142.781 138.115 142.398 138.913 141.631C139.741 140.834 140.155 139.791 140.155 138.503V138.043C140.155 136.755 139.756 135.728 138.959 134.961C138.161 134.164 137.027 133.765 135.555 133.765H128.287V142.781Z" fill="#1F2333"/>
<path fill-rule="evenodd" clip-rule="evenodd" d="M49.0796 161.203V127.487H71.2956V134.523H56.6676V140.689H70.0076V147.725H56.6676V154.167H71.5716V161.203H49.0796ZM55.9096 154.925V146.967H69.2496V141.447H55.9096V133.765H70.5376V128.245H49.8376V160.445H70.8136V154.925H55.9096ZM88.5747 160.338L88.5682 160.334C86.5734 159.288 85.0236 157.807 83.9375 155.898L83.9337 155.891L83.93 155.884C82.8779 153.944 82.3663 151.684 82.3663 149.129V127.487H89.9543V149.313C89.9543 151.126 90.4593 152.466 91.392 153.427C92.3435 154.376 93.7495 154.903 95.7283 154.903C97.7111 154.903 99.0968 154.374 100.015 153.43L100.022 153.423C100.984 152.461 101.502 151.122 101.502 149.313V127.487H109.09V149.129C109.09 151.687 108.562 153.95 107.477 155.891C106.419 157.807 104.865 159.29 102.838 160.336L102.834 160.339C100.833 161.355 98.4551 161.847 95.7283 161.847C93.001 161.847 90.6102 161.355 88.5813 160.341L88.5747 160.338ZM106.814 155.523C107.826 153.714 108.332 151.582 108.332 149.129V128.245H102.26V149.313C102.26 151.276 101.693 152.824 100.558 153.959C99.4543 155.094 97.8443 155.661 95.7283 155.661C93.6123 155.661 91.987 155.094 90.8523 153.959C89.7483 152.824 89.1963 151.276 89.1963 149.313V128.245H83.1243V149.129C83.1243 151.582 83.615 153.714 84.5963 155.523C85.6083 157.302 87.0497 158.682 88.9203 159.663C90.8217 160.614 93.091 161.089 95.7283 161.089C98.3657 161.089 100.62 160.614 102.49 159.663C104.392 158.682 105.833 157.302 106.814 155.523ZM121.457 161.203V127.487H136.199C138.31 127.487 140.188 127.855 141.811 128.617C143.431 129.377 144.711 130.465 145.622 131.883C146.539 133.31 146.985 134.975 146.985 136.847V137.399C146.985 139.451 146.495 141.191 145.447 142.553C144.669 143.566 143.742 144.372 142.671 144.964C143.542 145.196 144.285 145.647 144.868 146.334C145.691 147.271 146.065 148.491 146.065 149.911V161.203H138.477V150.785C138.477 150.191 138.319 149.782 138.064 149.487L138.054 149.476L138.045 149.464C137.882 149.261 137.53 149.059 136.751 149.059H129.045V161.203H121.457ZM128.287 148.301H136.751C137.64 148.301 138.269 148.531 138.637 148.991C139.035 149.451 139.235 150.049 139.235 150.785V160.445H145.307V149.911C145.307 148.623 144.969 147.596 144.295 146.829C143.62 146.032 142.669 145.602 141.443 145.541V144.713C142.792 144.161 143.927 143.287 144.847 142.091C145.767 140.895 146.227 139.331 146.227 137.399V136.847C146.227 135.099 145.813 133.581 144.985 132.293C144.157 131.005 142.991 130.008 141.489 129.303C139.986 128.598 138.223 128.245 136.199 128.245H122.215V160.445H128.287V148.301ZM138.428 135.502L138.423 135.497C137.807 134.881 136.889 134.523 135.555 134.523H129.045V142.023H135.555C136.861 142.023 137.77 141.678 138.387 141.085C139.048 140.448 139.397 139.612 139.397 138.503V138.043C139.397 136.924 139.057 136.107 138.433 135.507L138.428 135.502ZM138.913 141.631C138.115 142.398 136.996 142.781 135.555 142.781H128.287V133.765H135.555C137.027 133.765 138.161 134.164 138.959 134.961C139.756 135.728 140.155 136.755 140.155 138.043V138.503C140.155 139.791 139.741 140.834 138.913 141.631Z" fill="#1F2333"/>
<g opacity="0.7">
<path d="M152.619 84.6925L99.5622 30.5143L46.5007 84.6925L73.029 111.779L99.5622 84.6925L126.09 111.779L152.619 84.6925Z" fill="white"/>
</g>
<circle cx="99.4973" cy="44.597" r="36.0291" fill="white"/>
<path d="M108.722 39.4503C108.055 39.0587 107.185 39.0587 106.445 39.4503L101.223 42.4746L97.6769 44.4472L92.4551 47.4715C91.7879 47.8631 90.9176 47.8631 90.1779 47.4715L86.0295 45.1072C85.3622 44.7156 84.8908 43.9903 84.8908 43.1998V38.5365C84.8908 37.746 85.2897 37.028 86.0295 36.6291L90.1126 34.3301C90.7798 33.9384 91.6501 33.9384 92.3899 34.3301L96.473 36.6291C97.1402 37.0207 97.6116 37.746 97.6116 38.5365V41.5608L101.158 39.5228V36.4985C101.158 35.708 100.759 34.99 100.019 34.5911L92.4624 30.2542C91.7952 29.8625 90.9249 29.8625 90.1851 30.2542L82.4975 34.5911C81.7578 34.9828 81.3589 35.708 81.3589 36.4985V45.2377C81.3589 46.0283 81.7578 46.7463 82.4975 47.1451L90.1924 51.4821C90.8596 51.8737 91.7299 51.8737 92.4696 51.4821L97.6914 48.5231L101.238 46.4852L106.46 43.5262C107.127 43.1345 107.997 43.1345 108.737 43.5262L112.82 45.8252C113.487 46.2168 113.959 46.9421 113.959 47.7326V52.3959C113.959 53.1864 113.56 53.9044 112.82 54.3033L108.737 56.6676C108.07 57.0593 107.199 57.0593 106.46 56.6676L102.377 54.3686C101.709 53.977 101.238 53.2517 101.238 52.4612V49.4369L97.6914 51.4749V54.4991C97.6914 55.2897 98.0903 56.0076 98.8301 56.4065L106.525 60.7435C107.192 61.1351 108.062 61.1351 108.802 60.7435L116.497 56.4065C117.164 56.0149 117.636 55.2897 117.636 54.4991V45.7599C117.636 44.9694 117.237 44.2514 116.497 43.8525L108.722 39.4503Z" fill="#8247E5"/>
<defs>
<linearGradient id="paint0_linear_3180_39635" x1="99.3604" y1="1.20309" x2="1.34633" y2="110.427" gradientUnits="userSpaceOnUse">
<stop stop-color="#87DCC9"/>
<stop offset="1" stop-color="#FDCEAA"/>
</linearGradient>
</defs>
</svg>
