<svg width="195" height="195" viewBox="0 0 195 195" fill="none" xmlns="http://www.w3.org/2000/svg">
<g clip-path="url(#clip0_6707_287868)">
<circle cx="97.1356" cy="97.1378" r="97.1534" fill="url(#paint0_linear_6707_287868)"/>
<path d="M150.132 83.7577L97.0653 29.5691L43.9937 83.7577L70.527 110.849L97.0653 83.7577L123.599 110.849L150.132 83.7577Z" fill="white"/>
<path d="M94.9272 159.799C92.2894 159.799 90.0196 159.324 88.1179 158.373C86.2469 157.392 84.8053 156.011 83.7931 154.232C82.8115 152.423 82.3208 150.291 82.3208 147.837V126.949H88.3939V148.021C88.3939 149.984 88.946 151.533 90.0503 152.668C91.1851 153.803 92.8108 154.37 94.9272 154.37C97.0436 154.37 98.6539 153.803 99.7581 152.668C100.893 151.533 101.46 149.984 101.46 148.021V126.949H107.534V147.837C107.534 150.291 107.027 152.423 106.015 154.232C105.034 156.011 103.592 157.392 101.69 158.373C99.8195 159.324 97.565 159.799 94.9272 159.799Z" fill="#1F2333"/>
<path d="M121.418 159.155V126.949H135.405C137.43 126.949 139.193 127.302 140.696 128.007C142.199 128.713 143.365 129.71 144.193 130.998C145.021 132.286 145.435 133.804 145.435 135.553V136.105C145.435 138.037 144.975 139.601 144.055 140.798C143.135 141.994 142 142.868 140.65 143.42V144.248C141.877 144.31 142.828 144.739 143.503 145.537C144.177 146.303 144.515 147.331 144.515 148.619V159.155H138.442V149.493C138.442 148.757 138.242 148.159 137.844 147.699C137.476 147.239 136.847 147.009 135.957 147.009H127.492V159.155H121.418ZM127.492 141.488H134.761C136.203 141.488 137.322 141.104 138.12 140.338C138.948 139.54 139.362 138.497 139.362 137.209V136.749C139.362 135.461 138.963 134.433 138.166 133.666C137.368 132.869 136.233 132.47 134.761 132.47H127.492V141.488Z" fill="#1F2333"/>
<path fill-rule="evenodd" clip-rule="evenodd" d="M48.2693 159.913V126.191H70.4896V133.228H55.8588V139.395H69.2013V146.433H55.8588V152.876H70.7656V159.913H48.2693ZM87.7719 159.048L87.7654 159.044C85.7702 157.998 84.2202 156.517 83.1338 154.607L83.13 154.601L83.1263 154.594C82.0741 152.654 81.5623 150.393 81.5623 147.837V126.191H89.1518V148.021C89.1518 149.834 89.6569 151.175 90.5898 152.136C91.5415 153.085 92.9477 153.612 94.9269 153.612C96.9101 153.612 98.2961 153.083 99.2144 152.139L99.2217 152.132C100.184 151.17 100.702 149.831 100.702 148.021V126.191H108.291V147.837C108.291 150.396 107.763 152.659 106.678 154.6C105.62 156.517 104.065 158.001 102.038 159.047L102.034 159.049C100.032 160.066 97.6542 160.558 94.9269 160.558C92.1991 160.558 89.8078 160.066 87.7785 159.051L87.7719 159.048ZM106.015 154.232C107.027 152.423 107.534 150.291 107.534 147.837V126.949H101.46V148.021C101.46 149.984 100.893 151.533 99.7581 152.668C98.6539 153.803 97.0436 154.37 94.9272 154.37C92.8108 154.37 91.1851 153.803 90.0503 152.668C88.946 151.533 88.3939 149.984 88.3939 148.021V126.949H82.3208V147.837C82.3208 150.291 82.8115 152.423 83.7931 154.232C84.8053 156.011 86.2469 157.392 88.1179 158.373C90.0196 159.324 92.2894 159.799 94.9272 159.799C97.565 159.799 99.8195 159.324 101.69 158.373C103.592 157.392 105.034 156.011 106.015 154.232ZM120.66 159.913V126.191H135.405C137.517 126.191 139.395 126.559 141.018 127.321C142.639 128.082 143.919 129.17 144.83 130.588C145.748 132.015 146.193 133.68 146.193 135.553V136.105C146.193 138.157 145.703 139.898 144.655 141.26C143.876 142.273 142.95 143.079 141.878 143.671C142.749 143.904 143.493 144.354 144.076 145.041C144.899 145.979 145.273 147.199 145.273 148.619V159.913H137.683V149.493C137.683 148.9 137.526 148.49 137.27 148.196L137.261 148.184L137.251 148.173C137.088 147.969 136.736 147.767 135.957 147.767H128.25V159.913H120.66ZM127.492 147.009H135.957C136.847 147.009 137.476 147.239 137.844 147.699C138.242 148.159 138.442 148.757 138.442 149.493V159.155H144.515V148.619C144.515 147.331 144.177 146.303 143.503 145.537C142.828 144.739 141.877 144.31 140.65 144.248V143.42C142 142.868 143.135 141.994 144.055 140.798C144.975 139.601 145.435 138.037 145.435 136.105V135.553C145.435 133.804 145.021 132.286 144.193 130.998C143.365 129.71 142.199 128.713 140.696 128.007C139.193 127.302 137.43 126.949 135.405 126.949H121.418V159.155H127.492V147.009ZM137.635 134.208L137.629 134.202C137.014 133.587 136.096 133.228 134.761 133.228H128.25V140.73H134.761C136.068 140.73 136.976 140.385 137.594 139.791C138.255 139.155 138.603 138.318 138.603 137.209V136.749C138.603 135.63 138.264 134.813 137.64 134.213L137.635 134.208ZM138.12 140.338C137.322 141.104 136.203 141.488 134.761 141.488H127.492V132.47H134.761C136.233 132.47 137.368 132.869 138.166 133.666C138.963 134.433 139.362 135.461 139.362 136.749V137.209C139.362 138.497 138.948 139.54 138.12 140.338Z" fill="#1F2333"/>
</g>
<circle cx="97.5" cy="43.3581" r="36.0291" fill="white"/>
<g clip-path="url(#clip1_6707_287868)">
<path d="M103.364 41.2258L107.15 35.0136L117.356 50.3832L117.361 53.3329L117.328 33.0357C117.303 32.5393 117.031 32.0853 116.596 31.8176L98.2224 21.5985C97.7928 21.3942 97.2475 21.3967 96.8186 21.605C96.7605 21.6332 96.7063 21.6636 96.6542 21.697L96.5901 21.736L78.7552 31.7292L78.686 31.7599C78.5969 31.7991 78.5071 31.8498 78.4224 31.908C78.0842 32.1424 77.8596 32.4893 77.7869 32.878C77.7761 32.9369 77.7679 32.997 77.7644 33.0577L77.7923 49.5979L87.2985 35.3516C88.4951 33.4626 91.1028 32.8537 93.5237 32.8872L96.3646 32.9596L79.6247 58.9176L81.598 60.016L98.5383 32.986L106.026 32.9596L89.1296 60.6718L96.1708 64.5881L97.0121 65.0556C97.368 65.1955 97.7874 65.2025 98.1462 65.0771L116.778 54.6366L113.216 56.6326L103.364 41.2258ZM104.809 61.3439L97.697 50.551L102.038 43.4277L111.378 57.6623L104.809 61.3439Z" fill="#2D374B"/>
<path d="M97.6968 50.5513L104.809 61.3439L111.378 57.6626L102.038 43.428L97.6968 50.5513Z" fill="#28A0F0"/>
<path d="M117.361 53.3332L117.356 50.3835L107.151 35.0139L103.364 41.2262L113.217 56.6329L116.779 54.6369C117.128 54.3627 117.34 53.9599 117.362 53.5256L117.361 53.3332Z" fill="#28A0F0"/>
<path d="M74.5942 56.1149L79.6247 58.9176L96.3646 32.9597L93.5237 32.8873C91.1032 32.8541 88.4954 33.4627 87.2985 35.3517L77.7923 49.598L74.5942 54.3492V56.1149Z" fill="white"/>
<path d="M106.026 32.9596L98.5383 32.986L81.5979 60.016L87.5192 63.3124L89.1292 60.6719L106.026 32.9596Z" fill="white"/>
<path d="M120.516 32.9222C120.454 31.4081 119.606 30.0222 118.278 29.2151L99.663 18.8642C98.3493 18.2246 96.7082 18.2237 95.3919 18.8639C95.2365 18.9397 77.2895 29.0041 77.2895 29.0041C77.0411 29.1191 76.8019 29.2562 76.577 29.4121C75.3915 30.2338 74.6688 31.5105 74.5942 32.913V54.3495L77.7923 49.5983L77.7644 33.0578C77.7682 32.9973 77.7762 32.9375 77.787 32.8789C77.8593 32.4897 78.0842 32.1427 78.4224 31.9081C78.5071 31.8498 96.7602 21.6332 96.8183 21.605C97.2475 21.3967 97.7925 21.3943 98.2221 21.5986L116.596 31.8176C117.031 32.0854 117.303 32.5394 117.327 33.0357V53.525C117.305 53.9593 117.127 54.3621 116.778 54.6363L113.216 56.6323L111.378 57.6624L104.808 61.3437L98.1459 65.0768C97.7871 65.2023 97.3674 65.1952 97.0118 65.0553L89.1293 60.6716L87.519 63.3121L94.603 67.2556C94.8371 67.3845 95.0458 67.4986 95.2172 67.5918C95.4824 67.7357 95.6632 67.8317 95.727 67.8618C96.2304 68.0983 96.9547 68.2357 97.6076 68.2357C98.2059 68.2357 98.7896 68.1296 99.3419 67.9204L118.693 57.0845C119.804 56.2523 120.458 54.9973 120.516 53.6381V32.9222Z" fill="#96BEDC"/>
</g>
<defs>
<linearGradient id="paint0_linear_6707_287868" x1="31.4882" y1="156.014" x2="140.009" y2="59.4957" gradientUnits="userSpaceOnUse">
<stop offset="0.0729167" stop-color="#AAC4FD"/>
<stop offset="1" stop-color="#76A0FC"/>
</linearGradient>
<clipPath id="clip0_6707_287868">
<rect width="195" height="195" fill="white" transform="translate(0 0.000244141)"/>
</clipPath>
<clipPath id="clip1_6707_287868">
<rect width="46" height="50" fill="white" transform="translate(74.5942 18.3842)"/>
</clipPath>
</defs>
</svg>
