<svg width="195" height="195" viewBox="0 0 195 195" fill="none" xmlns="http://www.w3.org/2000/svg">
<g clip-path="url(#clip0_6707_287854)">
<circle cx="97.1356" cy="97.1376" r="97.1534" fill="url(#paint0_linear_6707_287854)"/>
<path d="M150.132 83.7574L97.0653 29.5688L43.9937 83.7574L70.527 110.849L97.0653 83.7574L123.599 110.849L150.132 83.7574Z" fill="white"/>
<path d="M94.9272 159.799C92.2894 159.799 90.0196 159.324 88.1179 158.373C86.2469 157.391 84.8053 156.011 83.7931 154.232C82.8115 152.422 82.3208 150.291 82.3208 147.837V126.949H88.3939V148.021C88.3939 149.984 88.946 151.533 90.0503 152.668C91.1851 153.803 92.8108 154.37 94.9272 154.37C97.0436 154.37 98.6539 153.803 99.7581 152.668C100.893 151.533 101.46 149.984 101.46 148.021V126.949H107.534V147.837C107.534 150.291 107.027 152.422 106.015 154.232C105.034 156.011 103.592 157.391 101.69 158.373C99.8195 159.324 97.565 159.799 94.9272 159.799Z" fill="#1F2333"/>
<path d="M121.418 159.155V126.949H135.405C137.43 126.949 139.193 127.302 140.696 128.007C142.199 128.712 143.365 129.709 144.193 130.998C145.021 132.286 145.435 133.804 145.435 135.552V136.105C145.435 138.037 144.975 139.601 144.055 140.797C143.135 141.994 142 142.868 140.65 143.42V144.248C141.877 144.309 142.828 144.739 143.503 145.536C144.177 146.303 144.515 147.331 144.515 148.619V159.155H138.442V149.493C138.442 148.757 138.242 148.159 137.844 147.699C137.476 147.239 136.847 147.009 135.957 147.009H127.492V159.155H121.418ZM127.492 141.488H134.761C136.203 141.488 137.322 141.104 138.12 140.337C138.948 139.54 139.362 138.497 139.362 137.209V136.749C139.362 135.46 138.963 134.433 138.166 133.666C137.368 132.869 136.233 132.47 134.761 132.47H127.492V141.488Z" fill="#1F2333"/>
<path fill-rule="evenodd" clip-rule="evenodd" d="M48.2693 159.913V126.191H70.4896V133.228H55.8588V139.395H69.2013V146.433H55.8588V152.876H70.7656V159.913H48.2693ZM87.7719 159.048L87.7654 159.044C85.7702 157.998 84.2202 156.516 83.1338 154.607L83.13 154.6L83.1263 154.594C82.0741 152.653 81.5623 150.393 81.5623 147.837V126.191H89.1518V148.021C89.1518 149.834 89.6569 151.174 90.5898 152.135C91.5415 153.085 92.9477 153.612 94.9269 153.612C96.9101 153.612 98.2961 153.083 99.2144 152.139L99.2217 152.132C100.184 151.169 100.702 149.831 100.702 148.021V126.191H108.291V147.837C108.291 150.395 107.763 152.658 106.678 154.6C105.62 156.517 104.065 158 102.038 159.047L102.034 159.049C100.032 160.066 97.6542 160.557 94.9269 160.557C92.1991 160.557 89.8078 160.066 87.7785 159.051L87.7719 159.048ZM106.015 154.232C107.027 152.422 107.534 150.291 107.534 147.837V126.949H101.46V148.021C101.46 149.984 100.893 151.533 99.7581 152.668C98.6539 153.803 97.0436 154.37 94.9272 154.37C92.8108 154.37 91.1851 153.803 90.0503 152.668C88.946 151.533 88.3939 149.984 88.3939 148.021V126.949H82.3208V147.837C82.3208 150.291 82.8115 152.422 83.7931 154.232C84.8053 156.011 86.2469 157.391 88.1179 158.373C90.0196 159.324 92.2894 159.799 94.9272 159.799C97.565 159.799 99.8195 159.324 101.69 158.373C103.592 157.391 105.034 156.011 106.015 154.232ZM120.66 159.913V126.191H135.405C137.517 126.191 139.395 126.559 141.018 127.321C142.639 128.081 143.919 129.169 144.83 130.588C145.748 132.015 146.193 133.68 146.193 135.552V136.105C146.193 138.157 145.703 139.898 144.655 141.26C143.876 142.272 142.95 143.079 141.878 143.671C142.749 143.904 143.493 144.354 144.076 145.041C144.899 145.979 145.273 147.199 145.273 148.619V159.913H137.683V149.493C137.683 148.9 137.526 148.49 137.27 148.195L137.261 148.184L137.251 148.172C137.088 147.969 136.736 147.767 135.957 147.767H128.25V159.913H120.66ZM127.492 147.009H135.957C136.847 147.009 137.476 147.239 137.844 147.699C138.242 148.159 138.442 148.757 138.442 149.493V159.155H144.515V148.619C144.515 147.331 144.177 146.303 143.503 145.536C142.828 144.739 141.877 144.309 140.65 144.248V143.42C142 142.868 143.135 141.994 144.055 140.797C144.975 139.601 145.435 138.037 145.435 136.105V135.552C145.435 133.804 145.021 132.286 144.193 130.998C143.365 129.709 142.199 128.712 140.696 128.007C139.193 127.302 137.43 126.949 135.405 126.949H121.418V159.155H127.492V147.009ZM137.635 134.207L137.629 134.202C137.014 133.587 136.096 133.228 134.761 133.228H128.25V140.729H134.761C136.068 140.729 136.976 140.385 137.594 139.791C138.255 139.154 138.603 138.318 138.603 137.209V136.749C138.603 135.63 138.264 134.813 137.64 134.213L137.635 134.207ZM138.12 140.337C137.322 141.104 136.203 141.488 134.761 141.488H127.492V132.47H134.761C136.233 132.47 137.368 132.869 138.166 133.666C138.963 134.433 139.362 135.46 139.362 136.749V137.209C139.362 138.497 138.948 139.54 138.12 140.337Z" fill="#1F2333"/>
</g>
<g opacity="0.9">
<circle cx="97.5" cy="43.3578" r="36.0291" fill="white"/>
</g>
<g clip-path="url(#clip1_6707_287854)">
<path d="M105.289 27.027C101.991 27.027 99.314 29.6926 99.3084 32.991V39.599C98.6924 39.6382 98.0652 39.6662 97.41 39.6662C96.7548 39.6662 96.1276 39.6942 95.5116 39.7278V32.991C95.4556 29.7262 92.7956 27.1054 89.5308 27.1054C86.266 27.1054 83.6004 29.7262 83.55 32.991V48.7886C83.6004 52.0534 86.2604 54.6742 89.5308 54.6742C92.8012 54.6742 95.4612 52.0534 95.5116 48.7886V42.1806C96.1276 42.1414 96.7548 42.1134 97.41 42.1134C98.0652 42.1134 98.6924 42.0854 99.3084 42.0518V48.7942C99.3588 52.059 102.024 54.6798 105.289 54.6798C108.554 54.6798 111.22 52.059 111.27 48.7942V32.991C111.259 29.6926 108.588 27.027 105.289 27.027V27.027ZM89.5308 29.4742C91.474 29.4742 93.0532 31.0478 93.0588 32.991V39.991C91.3116 40.243 89.598 40.7302 87.974 41.4302C87.2684 41.7382 86.6076 42.1358 86.0028 42.6062V32.991C86.0084 31.0478 87.5876 29.4742 89.5308 29.4742ZM93.0588 48.7886C93.0588 50.7374 91.4796 52.3166 89.5308 52.3166C87.582 52.3166 86.0028 50.7374 86.0028 48.7886V47.2038C86.0028 45.8038 87.1116 44.4766 88.9708 43.6534C90.2812 43.0878 91.6532 42.6846 93.0644 42.455V48.7886H93.0588ZM105.289 52.3054C103.346 52.3054 101.767 50.7318 101.761 48.7886V41.7886C103.508 41.5366 105.222 41.0494 106.846 40.3494C107.552 40.0414 108.212 39.6438 108.817 39.1734V48.7886C108.806 50.7318 107.232 52.3054 105.289 52.3054ZM105.849 38.115C104.539 38.6806 103.167 39.0838 101.756 39.3134V32.991C101.756 31.0422 103.335 29.463 105.284 29.463C107.232 29.463 108.812 31.0422 108.812 32.991V34.5758C108.817 35.9702 107.708 37.2974 105.849 38.115V38.115Z" fill="url(#paint1_linear_6707_287854)"/>
</g>
<defs>
<linearGradient id="paint0_linear_6707_287854" x1="31.4882" y1="156.014" x2="140.009" y2="59.4955" gradientUnits="userSpaceOnUse">
<stop offset="0.0729167" stop-color="#AAC4FD"/>
<stop offset="1" stop-color="#76A0FC"/>
</linearGradient>
<linearGradient id="paint1_linear_6707_287854" x1="85.3028" y1="53.0038" x2="109.448" y2="28.7113" gradientUnits="userSpaceOnUse">
<stop stop-color="#00AEE9"/>
<stop offset="1" stop-color="#69FABD"/>
</linearGradient>
<clipPath id="clip0_6707_287854">
<rect width="195" height="195" fill="white"/>
</clipPath>
<clipPath id="clip1_6707_287854">
<rect width="28" height="28" fill="white" transform="translate(83.4045 26.859)"/>
</clipPath>
</defs>
</svg>
