<svg width="195" height="195" viewBox="0 0 195 195" fill="none" xmlns="http://www.w3.org/2000/svg">
<g clip-path="url(#clip0_8951_17913)">
<circle cx="97.1356" cy="97.1378" r="97.1534" fill="url(#paint0_linear_8951_17913)"/>
<path d="M150.132 83.7589L97.0653 29.5703L43.9937 83.7589L70.527 110.851L97.0653 83.7589L123.599 110.851L150.132 83.7589Z" fill="white"/>
<path d="M94.9272 159.801C92.2894 159.801 90.0196 159.325 88.1179 158.375C86.2469 157.393 84.8053 156.013 83.7931 154.234C82.8115 152.424 82.3208 150.292 82.3208 147.839V126.951H88.3939V148.023C88.3939 149.986 88.946 151.535 90.0503 152.669C91.1851 153.804 92.8108 154.372 94.9272 154.372C97.0436 154.372 98.6539 153.804 99.7581 152.669C100.893 151.535 101.46 149.986 101.46 148.023V126.951H107.534V147.839C107.534 150.292 107.027 152.424 106.015 154.234C105.034 156.013 103.592 157.393 101.69 158.375C99.8195 159.325 97.565 159.801 94.9272 159.801Z" fill="#1F2333"/>
<path d="M121.418 159.157V126.951H135.405C137.43 126.951 139.193 127.303 140.696 128.009C142.199 128.714 143.365 129.711 144.193 130.999C145.021 132.288 145.435 133.806 145.435 135.554V136.106C145.435 138.039 144.975 139.603 144.055 140.799C143.135 141.995 142 142.87 140.65 143.422V144.25C141.877 144.311 142.828 144.741 143.503 145.538C144.177 146.305 144.515 147.332 144.515 148.621V159.157H138.442V149.495C138.442 148.759 138.242 148.161 137.844 147.7C137.476 147.24 136.847 147.01 135.957 147.01H127.492V159.157H121.418ZM127.492 141.489H134.761C136.203 141.489 137.322 141.106 138.12 140.339C138.948 139.542 139.362 138.499 139.362 137.21V136.75C139.362 135.462 138.963 134.435 138.166 133.668C137.368 132.87 136.233 132.472 134.761 132.472H127.492V141.489Z" fill="#1F2333"/>
<path fill-rule="evenodd" clip-rule="evenodd" d="M48.2693 159.915V126.192H70.4896V133.23H55.8588V139.397H69.2013V146.434H55.8588V152.877H70.7656V159.915H48.2693ZM87.7719 159.049L87.7654 159.046C85.7702 157.999 84.2202 156.518 83.1338 154.609L83.13 154.602L83.1263 154.595C82.0741 152.655 81.5623 150.394 81.5623 147.839V126.192H89.1518V148.023C89.1518 149.836 89.6569 151.176 90.5898 152.137C91.5415 153.086 92.9477 153.614 94.9269 153.614C96.9101 153.614 98.2961 153.085 99.2144 152.141L99.2217 152.133C100.184 151.171 100.702 149.832 100.702 148.023V126.192H108.291V147.839C108.291 150.397 107.763 152.66 106.678 154.602C105.62 156.519 104.065 158.002 102.038 159.048L102.034 159.05C100.032 160.067 97.6542 160.559 94.9269 160.559C92.1991 160.559 89.8078 160.067 87.7785 159.053L87.7719 159.049ZM106.015 154.234C107.027 152.424 107.534 150.292 107.534 147.839V126.951H101.46V148.023C101.46 149.986 100.893 151.535 99.7581 152.669C98.6539 153.804 97.0436 154.372 94.9272 154.372C92.8108 154.372 91.1851 153.804 90.0503 152.669C88.946 151.535 88.3939 149.986 88.3939 148.023V126.951H82.3208V147.839C82.3208 150.292 82.8115 152.424 83.7931 154.234C84.8053 156.013 86.2469 157.393 88.1179 158.375C90.0196 159.325 92.2894 159.801 94.9272 159.801C97.565 159.801 99.8195 159.325 101.69 158.375C103.592 157.393 105.034 156.013 106.015 154.234ZM120.66 159.915V126.192H135.405C137.517 126.192 139.395 126.56 141.018 127.322C142.639 128.083 143.919 129.171 144.83 130.589C145.748 132.017 146.193 133.682 146.193 135.554V136.106C146.193 138.159 145.703 139.9 144.655 141.261C143.876 142.274 142.95 143.08 141.878 143.673C142.749 143.905 143.493 144.356 144.076 145.043C144.899 145.98 145.273 147.201 145.273 148.621V159.915H137.683V149.495C137.683 148.901 137.526 148.492 137.27 148.197L137.261 148.186L137.251 148.174C137.088 147.97 136.736 147.769 135.957 147.769H128.25V159.915H120.66ZM127.492 147.01H135.957C136.847 147.01 137.476 147.24 137.844 147.7C138.242 148.161 138.442 148.759 138.442 149.495V159.157H144.515V148.621C144.515 147.332 144.177 146.305 143.503 145.538C142.828 144.741 141.877 144.311 140.65 144.25V143.422C142 142.87 143.135 141.995 144.055 140.799C144.975 139.603 145.435 138.039 145.435 136.106V135.554C145.435 133.806 145.021 132.288 144.193 130.999C143.365 129.711 142.199 128.714 140.696 128.009C139.193 127.303 137.43 126.951 135.405 126.951H121.418V159.157H127.492V147.01ZM137.635 134.209L137.629 134.204C137.014 133.588 136.096 133.23 134.761 133.23H128.25V140.731H134.761C136.068 140.731 136.976 140.386 137.594 139.793C138.255 139.156 138.603 138.32 138.603 137.211V136.75C138.603 135.632 138.264 134.815 137.64 134.214L137.635 134.209ZM138.12 140.339C137.322 141.106 136.203 141.489 134.761 141.489H127.492V132.472H134.761C136.233 132.472 137.368 132.87 138.166 133.668C138.963 134.435 139.362 135.462 139.362 136.75V137.21C139.362 138.499 138.948 139.542 138.12 140.339Z" fill="#1F2333"/>
</g>
<g clip-path="url(#clip1_8951_17913)">
<path d="M96.6244 79.3734C116.368 79.3734 132.373 63.3959 132.373 43.6867C132.373 23.9774 116.368 8 96.6244 8C77.8929 8 62.5261 22.3814 61 40.6869H108.252V46.6864H61C62.5261 64.9919 77.8929 79.3734 96.6244 79.3734Z" fill="#0052FF"/>
</g>
<defs>
<linearGradient id="paint0_linear_8951_17913" x1="31.4882" y1="156.014" x2="140.009" y2="59.4957" gradientUnits="userSpaceOnUse">
<stop offset="0.0729167" stop-color="#AAC4FD"/>
<stop offset="1" stop-color="#76A0FC"/>
</linearGradient>
<clipPath id="clip0_8951_17913">
<rect width="195" height="195" fill="white"/>
</clipPath>
<clipPath id="clip1_8951_17913">
<rect width="72" height="72" fill="white" transform="translate(61 8)"/>
</clipPath>
</defs>
</svg>
