<svg
  width="195"
  height="195"
  viewBox="0 0 195 195"
  fill="none"
  xmlns="http://www.w3.org/2000/svg"
>
<g clip-path="url(#clip0_10630_31807)">
<path
      d="M193.861 97.4359C193.861 150.904 150.516 194.249 97.0479 194.249C43.5797 194.249 0.235107 150.904 0.235107 97.4359C0.235107 43.9676 43.5797 0.623047 97.0479 0.623047C150.516 0.623047 193.861 43.9676 193.861 97.4359Z"
      fill="url(#paint0_linear_10630_31807)"
    />
<path
      d="M97.0833 194.115C43.6734 194.115 0.376141 150.921 0.376144 97.6376C0.376144 97.6376 43.6734 77.7851 97.0833 77.7852C150.493 77.7852 193.791 97.6376 193.791 97.6376C193.791 150.921 150.493 194.115 97.0833 194.115Z"
      fill="url(#paint1_linear_10630_31807)"
    />
<path
      d="M149.933 84.1138L97.0526 30.1152L44.167 84.1138L70.6073 111.111L97.0526 84.1138L123.493 111.111L149.933 84.1138Z"
      fill="white"
    />
<path
      d="M53.6737 158.735L53.6737 158.735L53.6807 158.739C55.6443 159.721 57.9718 160.203 60.6496 160.203C63.3272 160.203 65.6406 159.721 67.575 158.738L67.5773 158.737C69.5398 157.724 71.0371 156.293 72.0563 154.446C73.1041 152.572 73.6204 150.377 73.6204 147.875V127.046V126.646H73.2204H67.1644H66.7643V127.046V148.058C66.7643 149.935 66.2246 151.369 65.184 152.409L65.184 152.409L65.1802 152.413C64.1771 153.444 62.6897 153.99 60.6496 153.99C58.6115 153.99 57.1063 153.445 56.0713 152.411C55.0606 151.371 54.5349 149.937 54.5349 148.058V127.046V126.646H54.1348H48.0789H47.6788V127.046V147.875C47.6788 150.376 48.1792 152.569 49.1953 154.443L49.1952 154.443L49.1993 154.45C50.2477 156.293 51.7425 157.722 53.6737 158.735ZM84.018 147.016H83.6179V147.416V148.7C83.6179 151.088 84.1684 153.155 85.288 154.882C86.4019 156.601 87.9448 157.918 89.9045 158.835C91.8627 159.751 94.1093 160.203 96.6346 160.203C99.1557 160.203 101.356 159.783 103.224 158.928L103.227 158.927C105.118 158.044 106.586 156.837 107.611 155.3C108.668 153.73 109.193 151.923 109.193 149.893C109.193 147.87 108.702 146.174 107.689 144.835C106.694 143.518 105.305 142.47 103.543 141.683C101.829 140.904 99.813 140.27 97.4988 139.776C97.4985 139.776 97.4983 139.776 97.4981 139.776L96.4444 139.547L96.4432 139.546C95.1746 139.275 94.1482 138.961 93.3562 138.609C92.5764 138.262 92.0105 137.841 91.6329 137.358C91.2952 136.887 91.1164 136.302 91.1164 135.579C91.1164 134.496 91.4983 133.684 92.2481 133.095L92.2495 133.094C93.0337 132.472 94.2873 132.125 96.0841 132.125C97.2689 132.125 98.2696 132.303 99.0968 132.645L99.0967 132.646L99.1079 132.65C99.9165 132.957 100.516 133.451 100.925 134.133L100.93 134.141L100.936 134.149C101.367 134.797 101.602 135.69 101.602 136.864V138.24V138.64H102.002H107.967H108.367V138.24V136.864C108.367 134.481 107.834 132.472 106.74 130.862C105.686 129.234 104.217 128.023 102.346 127.229C100.513 126.408 98.4228 126.003 96.0841 126.003C93.7469 126.003 91.6864 126.393 89.9125 127.184C88.1672 127.946 86.7905 129.063 85.7967 130.538L85.7956 130.54C84.8266 131.993 84.352 133.741 84.352 135.763C84.352 137.774 84.7763 139.45 85.6592 140.758L85.6592 140.758L85.6631 140.763C86.5641 142.051 87.8285 143.086 89.4391 143.875L89.4391 143.875L89.4476 143.879C91.0701 144.628 92.9949 145.248 95.2174 145.742L95.2192 145.742L96.2726 145.971C96.273 145.971 96.2733 145.971 96.2737 145.971C97.6368 146.274 98.7782 146.606 99.7017 146.963L99.7089 146.966L99.7161 146.968C100.655 147.291 101.32 147.704 101.749 148.186L101.749 148.186L101.757 148.195C102.195 148.659 102.428 149.273 102.428 150.077C102.428 151.235 101.968 152.176 101.02 152.929L101.02 152.929L101.015 152.933C100.109 153.674 98.6736 154.081 96.6346 154.081C94.6462 154.081 93.1237 153.622 92.0229 152.748C90.9467 151.863 90.3823 150.539 90.3823 148.7V147.416V147.016H89.9822H84.018ZM119.19 159.161V159.561H119.59H132.803C137.179 159.561 140.568 158.459 142.9 156.19L142.9 156.19C145.266 153.889 146.416 150.512 146.416 146.132V140.076C146.416 135.697 145.266 132.334 142.9 130.062C140.568 127.764 137.179 126.646 132.803 126.646H119.59H119.19V127.046V132.368V132.768H119.59H123.411V153.439H119.59H119.19V153.839V159.161ZM137.962 134.743L137.966 134.746C139.009 135.902 139.56 137.597 139.56 139.892V146.315C139.56 148.577 139.01 150.275 137.962 151.464C136.935 152.631 135.277 153.256 132.895 153.256H130.267V132.951H132.895C135.277 132.951 136.935 133.576 137.962 134.743Z"
      fill="#1F2333"
      stroke="#1F2333"
      stroke-width="0.800113"
    />
<path
      d="M125.737 24.4131C125.838 23.5823 127.068 23.5823 127.169 24.4131L128.013 31.3826C129.102 40.3821 136.343 47.4775 145.526 48.5454L152.637 49.3723C153.485 49.471 153.485 50.6765 152.637 50.7752L145.526 51.6021C136.343 52.67 129.102 59.7654 128.013 68.7648L127.169 75.7343C127.068 76.5652 125.838 76.5652 125.737 75.7343L124.894 68.7648C123.804 59.7654 116.564 52.67 107.381 51.6021L100.269 50.7752C99.4211 50.6765 99.4211 49.471 100.269 49.3723L107.381 48.5454C116.564 47.4775 123.804 40.3821 124.894 31.3826L125.737 24.4131Z"
      fill="url(#paint2_linear_10630_31807)"
    />
</g>
<defs>
<linearGradient
      id="paint0_linear_10630_31807"
      x1="31.6307"
      y1="156.106"
      x2="139.771"
      y2="59.9258"
      gradientUnits="userSpaceOnUse"
    >
<stop offset="0.0729167" stop-color="#C3EEE4" />
<stop offset="1" stop-color="#2AC8A5" />
</linearGradient>
<linearGradient
      id="paint1_linear_10630_31807"
      x1="38.4774"
      y1="96.6475"
      x2="86.8754"
      y2="187.122"
      gradientUnits="userSpaceOnUse"
    >
<stop offset="0.0729167" stop-color="#C3EEE4" />
<stop offset="1" stop-color="#2AC8A5" />
</linearGradient>
<linearGradient
      id="paint2_linear_10630_31807"
      x1="122.986"
      y1="55.1137"
      x2="143.901"
      y2="36.6176"
      gradientUnits="userSpaceOnUse"
    >
<stop stop-color="#FDCEAA" />
<stop offset="1" stop-color="#FAF1E7" />
</linearGradient>
<clipPath id="clip0_10630_31807">
<rect
        width="194.316"
        height="194.316"
        fill="white"
        transform="translate(0.254883 0.654297)"
      />
</clipPath>
</defs>
</svg>
