<svg fill="none" height="1001" viewBox="0 0 1000 1001" width="1000" xmlns="http://www.w3.org/2000/svg" xmlns:xlink="http://www.w3.org/1999/xlink"><clipPath id="a"><path d="m119.438 423.511h761.124v154.769h-761.124z"/></clipPath><path d="m0 .895508h1000v1000h-1000z" fill="#1f2333"/><g clip-path="url(#a)"><g stroke="#faf1e7" stroke-linejoin="round" stroke-width="2.12012"><path d="m207.348 539.662-36.129 37.167-7.226-18.404 43.355-44.594z"/><path d="m135.084 539.655 36.134 37.163-7.226-18.393-43.355-44.594z"/><path d="m207.347 539.662 36.129 37.167 7.226-18.404-43.355-44.594z"/><path d="m279.61 539.655-36.133 37.163 7.226-18.393 43.355-44.594z"/><path d="m120.638 513.827 86.71-89.188 86.71 89.188-43.356 44.595-43.355-44.594-43.354 44.594z"/></g><path d="m489.312 528.896h11.175v-44.714h33.539v44.714h11.175v-55.896h-55.889z" fill="#faf1e7"/><path d="m601.096 528.896h55.888v-33.539h-11.174v22.357h-33.54v-33.532h44.714v-11.182h-55.888z" fill="#faf1e7"/><path d="m724.056 473h-11.174v55.896h55.896v-11.182h-44.722z" fill="#faf1e7"/><path d="m880.562 473h-55.896v55.896h55.896v-11.182h-33.517l33.517-33.517zm-44.554 39.968v-28.786h28.755z" fill="#faf1e7"/><path d="m398.596 472.931-.007-.007-1.036 1.043-47.022 47.022 7.907 7.907 40.174-40.174 40.242 40.098 7.892-7.922-48.081-47.906z" fill="#faf1e7"/></g></svg>