<svg width="1000" height="1001" fill="none" xmlns="http://www.w3.org/2000/svg"><path transform="translate(0 .896)" fill="#FAF1E7" d="M0 0H1000V1000H0z"/><g clip-path="url(#clip0_1417_29629)"><path d="M207.348 539.662l-36.129 37.167-7.226-18.404 43.355-44.594v25.831z" fill="#1F2333" stroke="#1F2333" stroke-width="2.12" stroke-linejoin="round"/><path d="M135.084 539.655l36.134 37.163-7.226-18.393-43.355-44.594 14.447 25.824zm72.263.007l36.129 37.167 7.226-18.404-43.355-44.594v25.831z" stroke="#1F2333" stroke-width="2.12" stroke-linejoin="round"/><path d="M279.61 539.655l-36.133 37.163 7.226-18.393 43.355-44.594-14.448 25.824z" fill="#1F2333" stroke="#1F2333" stroke-width="2.12" stroke-linejoin="round"/><path d="M120.638 513.827l86.71-89.188 86.71 89.188-43.356 44.595-43.355-44.594-43.354 44.594-43.355-44.595z" stroke="#1F2333" stroke-width="2.12" stroke-linejoin="round"/><path d="M489.312 528.896h11.175v-44.714h33.539v44.714h11.175V473h-55.889v55.896zm111.784 0h55.888v-33.539H645.81v22.357h-33.54v-33.532h44.714V473h-55.888v55.896zM724.056 473h-11.174v55.896h55.896v-11.182h-44.722V473zm156.506 0h-55.896v55.896h55.896v-11.182h-33.517l33.517-33.517V473zm-44.554 39.968v-28.786h28.755l-28.755 28.786zm-437.412-40.037l-.007-.007-1.036 1.043-47.022 47.022 7.907 7.907 40.174-40.174 40.242 40.098 7.892-7.922-48.081-47.906-.069-.061z" fill="#1F2333"/></g><defs><clipPath id="clip0_1417_29629"><path fill="#fff" transform="translate(119.438 423.511)" d="M0 0H761.124V154.769H0z"/></clipPath></defs></svg>