<svg fill="none" height="501" viewBox="0 0 501 501" width="501" xmlns="http://www.w3.org/2000/svg" xmlns:xlink="http://www.w3.org/1999/xlink"><linearGradient id="a" gradientUnits="userSpaceOnUse" x1="51.4264" x2="473.913" y1="171.472" y2="234.273"><stop offset="0" stop-color="#faf1e7"/><stop offset="1" stop-color="#6092ff"/></linearGradient><linearGradient id="b" gradientUnits="userSpaceOnUse" x1="98.5492" x2="223.333" y1="247.127" y2="480.395"><stop offset=".0729167" stop-color="#aac4fd"/><stop offset="1" stop-color="#76a0fc"/></linearGradient><linearGradient id="c" gradientUnits="userSpaceOnUse" x1="313.315" x2="363.403" y1="130.071" y2="85.7752"><stop offset="0" stop-color="#fdceaa"/><stop offset="1" stop-color="#faf1e7"/></linearGradient><clipPath id="d"><path d="m.5.103516h500v500h-500z"/></clipPath><g clip-path="url(#d)"><path d="m499.176 249.175c0 137.856-111.754 249.61-249.61 249.61s-249.6107388-111.754-249.6107388-249.61 111.7547388-249.610547 249.6107388-249.610547 249.61 111.754547 249.61 249.610547z" fill="url(#a)"/><path d="m249.652 498.425c-137.706 0-249.338544-111.367-249.338538-248.745 0 0 111.632538-51.186 249.338538-51.186 137.705 0 249.338 51.186 249.338 51.186 0 137.378-111.633 248.745-249.338 248.745z" fill="url(#b)"/><path d="m385.913 214.8-136.341-139.2238-136.354 139.2238 68.171 69.605 68.183-69.605 68.171 69.605z" fill="#fff"/><g fill="#1f2333"><path d="m243.646 410.15c-6.777 0-12.608-1.222-17.494-3.665-4.807-2.521-8.511-6.068-11.112-10.638-2.522-4.65-3.782-10.127-3.782-16.431v-53.666h15.603v54.139c0 5.043 1.418 9.023 4.255 11.939 2.916 2.915 7.093 4.373 12.53 4.373 5.438 0 9.575-1.458 12.412-4.373 2.916-2.916 4.374-6.896 4.374-11.939v-54.139h15.603v53.666c0 6.304-1.3 11.781-3.901 16.431-2.521 4.57-6.225 8.117-11.111 10.638-4.807 2.443-10.599 3.665-17.377 3.665z"/><path d="m311.709 408.495v-82.745h35.935c5.201 0 9.732.906 13.594 2.718 3.861 1.813 6.856 4.374 8.984 7.684 2.127 3.31 3.191 7.211 3.191 11.702v1.419c0 4.965-1.182 8.984-3.546 12.057s-5.28 5.319-8.747 6.738v2.128c3.152.157 5.595 1.261 7.329 3.309 1.733 1.971 2.6 4.611 2.6 7.92v27.07h-15.603v-24.824c0-1.891-.513-3.428-1.537-4.61-.946-1.182-2.561-1.773-4.846-1.773h-21.751v31.207zm15.603-45.392h18.677c3.704 0 6.58-.985 8.629-2.955 2.128-2.049 3.192-4.728 3.192-8.038v-1.182c0-3.31-1.025-5.95-3.074-7.92-2.048-2.049-4.964-3.073-8.747-3.073h-18.677z"/><path clip-rule="evenodd" d="m123.771 410.443v-86.641h57.089v18.081h-37.59v15.844h34.281v18.081h-34.281v16.554h38.3v18.081zm101.492-2.224-.017-.009c-5.126-2.689-9.108-6.494-11.9-11.4l-.009-.017-.01-.018c-2.703-4.984-4.018-10.792-4.018-17.359v-55.614h19.499v56.087c0 4.658 1.298 8.102 3.695 10.571 2.445 2.439 6.058 3.793 11.143 3.793 5.095 0 8.656-1.359 11.015-3.784l.019-.019c2.472-2.472 3.803-5.912 3.803-10.561v-56.087h19.5v55.614c0 6.573-1.358 12.388-4.146 17.376-2.718 4.925-6.713 8.736-11.921 11.424l-.011.006c-5.142 2.613-11.252 3.876-18.259 3.876-7.009 0-13.153-1.263-18.366-3.87zm46.871-12.372c2.601-4.65 3.901-10.127 3.901-16.431v-53.666h-15.603v54.139c0 5.043-1.458 9.023-4.374 11.939-2.837 2.915-6.974 4.373-12.412 4.373-5.437 0-9.614-1.458-12.53-4.373-2.837-2.916-4.255-6.896-4.255-11.939v-54.139h-15.603v53.666c0 6.304 1.26 11.781 3.782 16.431 2.601 4.57 6.305 8.117 11.112 10.638 4.886 2.443 10.717 3.665 17.494 3.665 6.778 0 12.57-1.222 17.377-3.665 4.886-2.521 8.59-6.068 11.111-10.638zm37.626 14.596v-86.641h37.883c5.426 0 10.251.945 14.422 2.903 4.164 1.955 7.452 4.75 9.795 8.394 2.357 3.666 3.501 7.944 3.501 12.755v1.419c0 5.273-1.259 9.746-3.951 13.245-2.001 2.602-4.382 4.673-7.135 6.196 2.238.597 4.149 1.753 5.648 3.519 2.113 2.409 3.073 5.544 3.073 9.192v29.018h-19.499v-26.772c0-1.525-.404-2.576-1.061-3.334l-.025-.029-.024-.03c-.419-.523-1.323-1.042-3.325-1.042h-19.802v31.207zm17.552-33.155h21.751c2.285 0 3.9.591 4.846 1.773 1.024 1.182 1.537 2.719 1.537 4.61v24.824h15.603v-27.07c0-3.309-.867-5.949-2.6-7.92-1.734-2.048-4.177-3.152-7.329-3.309v-2.128c3.467-1.419 6.383-3.665 8.747-6.738s3.546-7.092 3.546-12.057v-1.419c0-4.491-1.064-8.392-3.191-11.702-2.128-3.31-5.123-5.871-8.984-7.684-3.862-1.812-8.393-2.718-13.594-2.718h-35.935v82.745h15.603zm26.06-32.889-.014-.014c-1.582-1.582-3.939-2.502-7.37-2.502h-16.728v19.272h16.728c3.358 0 5.693-.886 7.279-2.411 1.698-1.635 2.594-3.784 2.594-6.634v-1.182c0-2.875-.872-4.974-2.475-6.516zm1.246 15.749c-2.049 1.97-4.925 2.955-8.629 2.955h-18.677v-23.168h18.677c3.783 0 6.699 1.024 8.747 3.073 2.049 1.97 3.074 4.61 3.074 7.92v1.182c0 3.31-1.064 5.989-3.192 8.038z" fill-rule="evenodd"/></g><path d="m319.903 56.5469c.241-1.9896 3.187-1.9896 3.428 0l2.021 16.6911c2.61 21.5528 19.949 38.545 41.942 41.103l17.031 1.98c2.031.237 2.031 3.124 0 3.36l-17.031 1.98c-21.993 2.558-39.332 19.55-41.942 41.103l-2.021 16.691c-.241 1.99-3.187 1.99-3.428 0l-2.021-16.691c-2.609-21.553-19.949-38.545-41.941-41.103l-17.032-1.98c-2.03-.236-2.03-3.123 0-3.36l17.032-1.98c21.992-2.558 39.332-19.5502 41.941-41.103z" fill="url(#c)"/></g></svg>