<svg width="502" height="502" viewBox="0 0 502 502" fill="none" xmlns="http://www.w3.org/2000/svg">
<g clip-path="url(#clip0_11236_9093)">
<path d="M250.324 266.702L166.389 351.401L149.603 309.46L250.324 207.835L250.324 266.702Z" fill="white" stroke="white" stroke-width="5" stroke-linejoin="round"/>
<path d="M82.4447 266.685L166.389 351.375L149.603 309.46L48.8809 207.835L82.4447 266.685Z" stroke="white" stroke-width="5" stroke-linejoin="round"/>
<path d="M250.324 266.702L334.26 351.401L351.046 309.46L250.324 207.835L250.324 266.702Z" stroke="white" stroke-width="5" stroke-linejoin="round"/>
<path d="M418.204 266.685L334.259 351.375L351.046 309.46L451.768 207.835L418.204 266.685Z" fill="white" stroke="white" stroke-width="5" stroke-linejoin="round"/>
<path d="M48.8809 207.826L250.324 4.5752L451.768 207.826L351.045 309.453L250.323 207.827L149.603 309.452L48.8809 207.826Z" stroke="white" stroke-width="5" stroke-linejoin="round"/>
<path d="M131.179 503.105H141.741V460.84H173.443V503.105H184.006V450.271H131.179V503.105Z" fill="white"/>
<path d="M236.84 503.105H289.667V471.403H279.104V492.535H247.402V460.84H289.667V450.271H236.84V503.105Z" fill="white"/>
<path d="M353.063 450.271H342.501V503.105H395.335V492.535H353.063V450.271Z" fill="white"/>
<path d="M500.996 450.271H448.162V503.105H500.996V492.535H469.316L500.996 460.855V450.271ZM458.883 488.049V460.84H486.063L458.883 488.049Z" fill="white"/>
<path d="M45.4325 450.204L45.4254 450.197L44.4461 451.184L0 495.63L7.47369 503.103L45.4469 465.13L83.485 503.031L90.9442 495.543L45.4973 450.262L45.4325 450.204Z" fill="white"/>
</g>
<defs>
<clipPath id="clip0_11236_9093">
<rect width="502" height="502" fill="white"/>
</clipPath>
</defs>
</svg>
