<svg width="502" height="502" fill="none" xmlns="http://www.w3.org/2000/svg"><g clip-path="url(#clip0_11238_12137)"><path d="M250.324 266.701L166.389 351.4l-16.786-41.941 100.721-101.625v58.867z" fill="#1F2333" stroke="#1F2333" stroke-width="5" stroke-linejoin="round"/><path d="M82.445 266.684l83.944 84.69-16.786-41.915L48.881 207.834l33.564 58.85zm167.879.017L334.26 351.4l16.786-41.941-100.722-101.625v58.867z" stroke="#1F2333" stroke-width="5" stroke-linejoin="round"/><path d="M418.204 266.684l-83.945 84.69 16.787-41.915 100.722-101.625-33.564 58.85z" fill="#1F2333" stroke="#1F2333" stroke-width="5" stroke-linejoin="round"/><path d="M48.88 207.827L250.325 4.576l201.444 203.251-100.723 101.626-100.722-101.625-100.72 101.624L48.881 207.827z" stroke="#1F2333" stroke-width="5" stroke-linejoin="round"/><path d="M131.179 503.103h10.562v-42.264h31.702v42.264h10.563v-52.834h-52.827v52.834zm105.661 0h52.827v-31.702h-10.563v21.132h-31.702v-31.694h42.265v-10.57H236.84v52.834zm116.223-52.834h-10.562v52.834h52.834v-10.57h-42.272v-42.264zm147.933 0h-52.834v52.834h52.834v-10.57h-31.68l31.68-31.68v-10.584zm-42.113 37.779v-27.209h27.18l-27.18 27.209zm-413.45-37.843l-.008-.007-.979.986L0 495.63l7.474 7.474 37.973-37.973 38.038 37.901 7.46-7.488-45.448-45.281-.065-.058z" fill="#1F2333"/></g><defs><clipPath id="clip0_11238_12137"><path fill="#fff" d="M0 0H502V502H0z"/></clipPath></defs></svg>